<svg width="287" height="46" viewBox="0 0 287 46" fill="none" xmlns="http://www.w3.org/2000/svg">
<path d="M1.83501 20.852C0.627124 22.0599 0.627124 24.0183 1.83501 25.2261L21.5187 44.9099C22.7266 46.1178 24.685 46.1178 25.8929 44.9099C27.1008 43.702 27.1008 41.7436 25.8929 40.5357L8.39626 23.0391L25.8929 5.54242C27.1008 4.33453 27.1008 2.37615 25.8929 1.16826C24.685 -0.0396272 22.7266 -0.0396273 21.5187 1.16826L1.83501 20.852ZM285.704 25.2262C286.912 24.0183 286.912 22.0599 285.704 20.852L266.02 1.16829C264.812 -0.0396062 262.854 -0.0396064 261.646 1.16829C260.438 2.37617 260.438 4.33455 261.646 5.54244L279.143 23.0391L261.646 40.5357C260.438 41.7436 260.438 43.702 261.646 44.9099C262.854 46.1178 264.812 46.1178 266.02 44.9099L285.704 25.2262ZM4.02209 26.1321L283.517 26.1321L283.517 19.9461L4.02209 19.9461L4.02209 26.1321Z" fill="white"/>
</svg>
