<svg width="62" height="61" viewBox="0 0 62 61" fill="none" xmlns="http://www.w3.org/2000/svg">
<path fill-rule="evenodd" clip-rule="evenodd" d="M21.0609 0.196799C19.7298 0.600996 17.8303 1.7708 16.3204 3.11616C15.5466 3.80548 14.9137 4.45909 14.9137 4.56863C14.9137 4.67818 15.8221 4.76352 16.9322 4.75838C20.3025 4.74298 22.7212 5.6707 25.4827 8.03818C27.2998 9.59604 28.6316 10.1866 30.3433 10.1934C32.2189 10.2007 33.7799 9.61119 35.1557 8.37537C37.9636 5.85336 40.613 4.78381 44.0863 4.76963C45.2638 4.76499 46.2276 4.69163 46.2286 4.60678C46.2335 4.20136 43.2238 1.7818 41.7012 0.967293C40.0203 0.0679366 39.9391 0.0510657 37.2977 0.0510657C34.7692 0.0510657 34.5055 0.0989929 32.9281 0.845767C30.8374 1.83535 30.1234 1.83877 28.124 0.868262C26.7408 0.196801 26.2312 0.0865213 24.2098 0.0212336C22.9316 -0.0200908 21.5147 0.0588874 21.0609 0.196799ZM24.7762 2.12071C25.5585 2.24884 26.8245 2.65206 27.5895 3.01665C29.7192 4.03215 31.0982 4.0566 33.2412 3.11641C34.2171 2.68825 35.5567 2.25251 36.2179 2.1481C37.479 1.94881 39.5491 2.17181 40.2882 2.58628C40.6957 2.81516 40.6923 2.84107 40.2334 3.00515C37.3672 4.03044 36.3314 4.62365 33.7679 6.70895C31.5244 8.53407 29.6926 8.58982 27.5838 6.89772C24.9036 4.74665 22.023 3.10761 20.9232 3.10761C20.7125 3.10761 20.5403 3.00613 20.5403 2.88216C20.5403 2.65231 21.6385 2.2393 22.742 2.0542C23.0784 1.99772 23.3536 1.93732 23.3536 1.91971C23.3536 1.90211 23.9938 1.99258 24.7762 2.12071ZM14.5468 6.62532C9.79991 7.77923 6.53086 11.9078 6.48952 16.8009C6.46261 19.9582 7.22219 21.7109 10.1872 25.3328C11.5057 26.9437 12.0723 28.8126 11.9157 31.0349C11.7734 33.0573 11.0037 34.7135 9.26978 36.7296C6.93499 39.4443 6.00246 42.5081 6.57172 45.5957C8.14545 54.1338 18.0766 57.3507 24.5486 51.4188C28.1453 48.1224 32.7179 48.0955 36.383 51.3491C38.0793 52.8549 39.6352 53.7337 41.2982 54.125C46.895 55.4417 52.2062 52.5796 54.0674 47.2441C54.8497 45.002 54.6734 41.6958 53.6567 39.5416C53.2442 38.6674 52.4127 37.402 51.8087 36.7296C49.8032 34.4961 49.3166 33.393 49.2041 30.8238C49.1118 28.7116 49.1537 28.46 49.8382 27.0217C50.2413 26.1747 51.0975 24.8763 51.7404 24.1366C52.3836 23.3969 53.2501 22.0765 53.666 21.2023C54.3622 19.7391 54.4221 19.4092 54.4221 17.0454C54.4221 14.8843 54.3252 14.2317 53.8105 12.923C52.0658 8.48712 46.8925 5.62864 42.1799 6.4967C40.0871 6.88207 38.6085 7.63618 36.5903 9.3476C34.2706 11.3148 33.1145 11.7828 30.5703 11.7857C28.0812 11.7887 26.5116 11.1691 24.5129 9.39479C22.7738 7.85112 21.4208 7.1063 19.5584 6.66738C17.6918 6.22772 16.233 6.2155 14.5468 6.62532ZM19.4779 8.85171C21.6857 9.50703 23.292 10.9324 21.8227 10.9324C19.7367 10.9324 16.8874 12.3579 14.7643 14.464C12.7578 16.4544 11.6454 18.4346 11.1921 20.8221C11.0245 21.7056 10.775 22.3961 10.6378 22.3567C10.5003 22.3174 10.0091 21.5346 9.54598 20.6172C8.79471 19.1285 8.70322 18.7346 8.69808 16.9579C8.69025 14.4129 9.50855 12.4565 11.2692 10.8103C12.4028 9.75057 12.7255 9.56278 14.6691 8.83092C15.8213 8.39714 17.978 8.40643 19.4779 8.85171ZM46.3771 8.84853C49.0311 9.63638 51.2409 11.7816 51.9956 14.3026C52.4484 15.8157 52.4878 18.1749 52.0817 19.4486C51.7928 20.3546 50.6119 22.4252 50.3857 22.4228C50.3184 22.422 50.072 21.6285 49.8379 20.6595C49.0514 17.4005 47.3319 14.8552 44.6862 13.034C43.2074 12.0158 40.4719 10.9324 39.3806 10.9324C38.2533 10.9324 38.2981 10.5228 39.5024 9.81733C41.7564 8.4969 44.0866 8.16851 46.3771 8.84853ZM26.6168 13.383C29.6427 14.2212 30.8614 14.2459 33.7838 13.5277C36.7803 12.7917 37.9727 12.7406 39.9802 13.2634C43.0214 14.0552 45.525 16.1038 46.9923 19.0016C47.6979 20.3947 47.8094 20.8788 47.8945 22.9218C47.9731 24.7985 47.8914 25.5776 47.4765 26.921C46.7993 29.1122 46.7976 31.6261 47.4718 33.808C48.214 36.2102 48.0748 39.5947 47.1526 41.5667C46.2435 43.5109 44.9015 45.0793 43.2101 46.1748C40.5467 47.8996 37.523 48.2906 33.9952 47.3663C31.5929 46.7369 29.2344 46.7462 26.9253 47.3937C22.673 48.5865 18.5972 47.4906 15.802 44.403C14.2016 42.6355 13.2253 40.4101 13.0303 38.0869C12.9227 36.8041 13.0296 35.9957 13.5656 34.0393C14.3176 31.2938 14.3207 28.8811 13.5749 26.8264C11.576 21.3195 15.0368 14.8178 20.785 13.2805C22.6755 12.7748 24.5393 12.8076 26.6168 13.383ZM21.7542 14.8112C19.3881 15.3147 16.7125 17.4144 15.6555 19.5968C15.356 20.215 14.9969 21.4618 14.857 22.3675C14.6353 23.8038 14.672 24.2799 15.1437 26.0928C15.9962 29.3687 16.0481 30.9906 15.3822 33.5532C14.3058 37.6957 14.7912 40.6182 16.9682 43.1033C19.3502 45.8227 22.6486 46.7076 26.5931 45.6857C29.1255 45.0294 32.2678 44.9888 33.9255 45.5906C34.7257 45.8811 35.8312 46.0166 37.4201 46.0185C39.4711 46.0212 39.9072 45.9415 41.1326 45.34C45.3342 43.2774 47.1178 38.9567 45.7616 34.1256C45.0769 31.6863 45.0783 28.8955 45.7653 26.6721C46.4764 24.3711 46.3372 21.6466 45.4093 19.7044C44.5966 18.003 42.7582 16.2449 40.8983 15.3905C39.1129 14.5704 36.0398 14.4855 34.1175 15.203C32.4931 15.8094 28.4814 15.8341 26.9267 15.2475C25.6708 14.7731 22.9935 14.5474 21.7542 14.8112ZM3.49985 15.884C0.849729 18.7617 -0.0908883 21.0101 0.0465959 24.1366C0.122188 25.8546 0.27875 26.5193 0.948313 27.969C1.89676 30.022 1.88135 30.7529 0.838475 33.184C-0.929005 37.3039 0.121457 41.5988 3.7665 45.1553L4.88374 46.2454V43.9863C4.88374 40.563 5.87524 37.9857 8.19755 35.372C9.92614 33.4265 10.1414 32.8732 10.1424 30.372C10.1434 27.9028 9.89262 27.3103 7.8925 25.0594C5.88748 22.803 4.88374 20.0739 4.88374 16.8787C4.88374 15.76 4.78761 14.8447 4.67018 14.8447C4.55276 14.8447 4.02606 15.3123 3.49985 15.884ZM56.2569 16.3708C56.2569 19.7354 55.0824 22.9583 53.026 25.237C49.9918 28.5992 49.8864 31.8503 52.7053 35.1402C55.1714 38.0187 56.2449 40.8466 56.2676 44.5264L56.2786 46.266L57.7499 44.6886C59.625 42.6786 60.8638 40.1778 61.0681 37.9908C61.2393 36.1586 60.9531 34.7912 59.8919 32.3731C59.0545 30.4649 59.0817 30.0856 60.2307 27.6316C61.9879 23.8779 61.1696 19.9988 57.8372 16.285C56.3156 14.5894 56.2569 14.5926 56.2569 16.3708ZM24.4545 16.8885C24.4545 16.9366 23.8135 17.3714 23.0304 17.8546C21.1074 19.041 18.8034 21.385 17.9435 23.0297C17.5553 23.7723 17.1553 24.3802 17.0543 24.3806C16.9532 24.3809 16.8708 23.9606 16.8708 23.4466C16.8708 20.7206 19.0576 17.8516 21.762 17.0293C22.389 16.8386 24.4545 16.7305 24.4545 16.8885ZM39.678 17.209C41.1383 17.7797 42.4571 18.8657 43.1736 20.0878C43.8104 21.174 44.411 23.7104 44.1365 24.1545C44.0489 24.2958 43.5753 23.7319 43.0838 22.9015C42.0092 21.085 39.3475 18.5092 37.6642 17.6565C36.9917 17.3159 36.4415 16.9841 36.4415 16.919C36.4415 16.6332 38.7289 16.8383 39.678 17.209ZM34.3201 18.5647C40.0653 20.3206 43.7399 26.1791 42.8639 32.1863C42.4718 34.8761 41.3721 37.0477 39.3771 39.0719C34.5517 43.9679 26.9945 44.1337 22.0385 39.4523C20.5183 38.0162 19.1393 35.8026 18.5434 33.8413C17.829 31.4911 17.9912 28.1336 18.9304 25.8204C20.1685 22.7717 22.8612 20.0844 25.8968 18.8684C28.7806 17.7132 31.2433 17.6245 34.3201 18.5647ZM3.26647 21.0189C3.51991 22.3665 4.74895 24.6829 6.02496 26.218C6.69428 27.0232 7.41619 27.9573 7.62902 28.2935C8.64988 29.9061 8.34923 31.8105 6.79018 33.606C5.2162 35.4192 3.91524 37.5717 3.46218 39.1129C3.23491 39.8864 2.9707 40.5192 2.87505 40.5194C2.50712 40.5202 2.14898 38.3794 2.24243 36.7367C2.31362 35.4842 2.55238 34.5425 3.12262 33.2652C4.15571 30.9517 4.15963 29.679 3.14048 27.5599C2.23509 25.6776 1.94324 23.0891 2.43716 21.3256C2.8019 20.023 3.06098 19.9274 3.26647 21.0189ZM58.8392 22.3286C59.0645 24.131 58.7905 25.7003 57.9473 27.434C56.9487 29.487 56.9602 31.3185 57.9855 33.5085C58.3979 34.3897 58.7962 35.6982 58.8703 36.4161C59.0112 37.7805 58.5745 40.5197 58.2161 40.5197C58.1021 40.5197 57.8213 39.9419 57.5926 39.2359C57.013 37.4485 56.0017 35.7282 54.5665 34.089C52.2764 31.473 52.2733 29.4814 54.5545 26.8264C55.8679 25.2976 57.2909 22.8093 57.7504 21.2385C58.0251 20.2996 58.0977 20.2238 58.3683 20.5935C58.5369 20.8238 58.749 21.6048 58.8392 22.3286ZM17.6942 37.3211C18.7689 39.5641 21.5316 42.2793 23.8761 43.3967C24.5888 43.7364 24.6563 43.8308 24.2862 43.9684C23.3243 44.3262 20.6651 43.5192 19.3047 42.4568C18.0754 41.4965 17.0942 39.5741 16.9344 37.8126C16.862 37.0152 16.9007 36.364 17.0203 36.3655C17.1399 36.3672 17.4432 36.7971 17.6942 37.3211ZM44.0306 38.2901C43.3823 41.7078 40.6167 44.0924 37.5282 43.8973L36.3192 43.8207L37.1754 43.4004C39.3632 42.3267 41.8061 40.0272 43.0682 37.8539C44.0315 36.195 44.3968 36.3606 44.0306 38.2901ZM11.1968 39.946C12.109 44.7526 16.2255 48.8863 21.0433 49.8338C21.843 49.9911 22.4974 50.2001 22.4974 50.2984C22.4974 50.3967 21.8095 50.8501 20.9684 51.3058C19.5204 52.0908 19.31 52.1345 16.9931 52.1343C14.8161 52.1343 14.4108 52.0624 13.3124 51.4831C11.6613 50.6121 10.1825 49.09 9.3647 47.4192C8.78516 46.2352 8.69539 45.7596 8.70958 43.9557C8.71838 42.8055 8.85905 41.5344 9.02173 41.131C9.44861 40.0715 10.5005 38.319 10.7095 38.319C10.8076 38.319 11.027 39.0513 11.1968 39.946ZM51.4706 40.0152C52.207 41.4892 52.3858 42.2971 52.3726 44.0924C52.3479 47.394 50.1479 50.6006 47.1332 51.7279C44.544 52.6962 41.5258 52.3619 39.2548 50.8549L38.2763 50.2055L39.7769 49.8994C44.7948 48.8755 49.0502 44.646 49.9549 39.7832C50.2677 38.1021 50.5351 38.1429 51.4706 40.0152ZM28.3246 50.9315C27.6208 51.1479 26.6755 51.744 25.8716 52.4783C23.2553 54.8686 20.009 56.1494 16.5039 56.1741L14.7914 56.1863L16.3595 57.6754C17.3787 58.6433 18.5771 59.4729 19.7832 60.0454C21.4905 60.8559 21.8146 60.9259 23.8417 60.9225C25.8354 60.9193 26.218 60.8386 27.8725 60.0723C30.073 59.0531 31.1821 59.0181 32.8943 59.9136C36.726 61.9174 41.0404 61.0985 44.7591 57.6617L46.3492 56.1922L44.5047 56.1807C41.0543 56.1591 38.3225 55.1231 35.5127 52.7708C32.9712 50.6432 30.9461 50.125 28.3246 50.9315ZM32.476 53.2112C32.9751 53.4669 33.6495 53.9611 33.9744 54.3091C34.8827 55.2818 37.3746 56.7934 39.0667 57.3981C39.9048 57.6977 40.5382 58.0278 40.4741 58.1317C40.2407 58.5093 37.8208 58.9181 36.5788 58.79C35.8784 58.7178 34.5427 58.3029 33.6106 57.8681C31.2191 56.7524 29.7938 56.7546 27.3844 57.8777C25.8105 58.6112 25.2994 58.7306 23.7206 58.7335C22.6919 58.7352 21.5299 58.5865 21.0756 58.3951L20.2654 58.0535L21.9678 57.3913C24.0293 56.5895 25.0592 55.9696 26.7296 54.5248C27.4292 53.9198 28.3319 53.2762 28.7356 53.0948C29.7892 52.6214 31.4246 52.672 32.476 53.2112Z" fill="url(#paint0_linear_5_2428)"/>
<defs>
<linearGradient id="paint0_linear_5_2428" x1="30.5662" y1="0.0102539" x2="30.5662" y2="30.5764" gradientUnits="userSpaceOnUse">
<stop stop-color="#FF0206"/>
<stop offset="1" stop-color="#FF005E"/>
</linearGradient>
</defs>
</svg>
