<svg width="173" height="50" viewBox="0 0 173 50" fill="none" xmlns="http://www.w3.org/2000/svg">
<path fill-rule="evenodd" clip-rule="evenodd" d="M17.2688 0.152957C16.1774 0.484377 14.6199 1.44355 13.3819 2.54668C12.7474 3.11188 12.2285 3.64781 12.2285 3.73763C12.2285 3.82745 12.9733 3.89743 13.8835 3.89322C16.647 3.88058 18.6302 4.64127 20.8944 6.58247C22.3844 7.85983 23.4764 8.34403 24.8799 8.34964C26.4178 8.35566 27.6977 7.87226 28.8258 6.85895C31.1282 4.79104 33.3005 3.91407 36.1485 3.90244C37.1139 3.89863 37.9042 3.83848 37.905 3.76891C37.909 3.43648 35.4412 1.45257 34.1927 0.784722C32.8145 0.0472967 32.7479 0.0334635 30.5822 0.0334635C28.5089 0.0334635 28.2927 0.0727613 26.9993 0.685077C25.2851 1.49648 24.6996 1.49929 23.0602 0.703521C21.9261 0.152958 21.5082 0.0625352 19.8508 0.00900277C18.8027 -0.0248811 17.6409 0.0398769 17.2688 0.152957ZM20.3151 1.73046C20.9566 1.83552 21.9947 2.16614 22.6219 2.46508C24.3682 3.29774 25.4989 3.31779 27.256 2.54688C28.0562 2.19581 29.1546 1.83853 29.6968 1.75292C30.7308 1.58952 32.4282 1.77237 33.0342 2.11221C33.3683 2.29987 33.3655 2.32112 32.9892 2.45566C30.6391 3.29634 29.7899 3.78274 27.6879 5.49257C25.8483 6.98908 24.3463 7.03479 22.6173 5.64736C20.4196 3.88359 18.0577 2.53967 17.1559 2.53967C16.9832 2.53967 16.842 2.45646 16.842 2.35481C16.842 2.16634 17.7424 1.8277 18.6473 1.67593C18.9231 1.62961 19.1487 1.58009 19.1487 1.56565C19.1487 1.55122 19.6737 1.6254 20.3151 1.73046ZM11.9276 5.42401C8.03541 6.37015 5.35496 9.75532 5.32106 13.7675C5.299 16.3563 5.92182 17.7934 8.35293 20.7632C9.43409 22.084 9.89865 23.6164 9.77028 25.4385C9.65354 27.0968 9.02249 28.4548 7.60073 30.1079C5.68633 32.3338 4.9217 34.846 5.38846 37.3777C6.67884 44.3784 14.8219 47.0161 20.1286 42.1523C23.0776 39.4494 26.827 39.4274 29.8322 42.0952C31.223 43.3298 32.4988 44.0504 33.8624 44.3712C38.4514 45.4509 42.8063 43.1041 44.3324 38.7292C44.9739 36.8909 44.8293 34.18 43.9956 32.4136C43.6574 31.6968 42.9756 30.6593 42.4804 30.1079C40.836 28.2766 40.437 27.3721 40.3447 25.2655C40.2691 23.5336 40.3034 23.3273 40.8647 22.148C41.1952 21.4535 41.8973 20.3888 42.4244 19.7823C42.9518 19.1758 43.6622 18.0932 44.0032 17.3764C44.5741 16.1766 44.6233 15.9061 44.6233 13.9679C44.6233 12.196 44.5438 11.6608 44.1218 10.5878C42.6912 6.95058 38.4494 4.60678 34.5853 5.31854C32.8693 5.63453 31.6569 6.25285 30.0021 7.65613C28.1001 9.26912 27.1521 9.65287 25.066 9.65528C23.0251 9.65768 21.7381 9.14962 20.0993 7.69482C18.6733 6.42909 17.5639 5.81838 16.0368 5.45849C14.5063 5.098 13.3102 5.08797 11.9276 5.42401ZM15.9708 7.24952C17.7811 7.78685 19.0982 8.95554 17.8935 8.95554C16.1831 8.95554 13.8468 10.1244 12.1059 11.8513C10.4607 13.4834 9.54863 15.107 9.17694 17.0646C9.03954 17.789 8.83495 18.3552 8.72242 18.3229C8.60969 18.2906 8.20691 17.6489 7.8272 16.8966C7.2112 15.676 7.13618 15.353 7.13196 13.8962C7.12555 11.8094 7.79651 10.2052 9.24013 8.8555C10.1696 7.98655 10.4342 7.83257 12.0279 7.23248C12.9727 6.8768 14.741 6.88442 15.9708 7.24952ZM38.0268 7.24691C40.2029 7.89291 42.0148 9.65187 42.6336 11.719C43.0049 12.9597 43.0372 14.894 42.7042 15.9384C42.4674 16.6813 41.4991 18.3791 41.3136 18.3771C41.2584 18.3765 41.0564 17.7258 40.8645 16.9313C40.2196 14.2591 38.8096 12.1721 36.6403 10.6788C35.4277 9.84395 33.1848 8.95554 32.29 8.95554C31.3657 8.95554 31.4024 8.61972 32.3899 8.04128C34.2381 6.9586 36.1487 6.68934 38.0268 7.24691ZM21.8243 10.9649C24.3054 11.6522 25.3047 11.6725 27.7009 11.0836C30.1579 10.4801 31.1356 10.4382 32.7816 10.8669C35.2753 11.5161 37.3281 13.1958 38.5312 15.5719C39.1097 16.7141 39.2012 17.1111 39.271 18.7863C39.3354 20.3251 39.2684 20.9639 38.9282 22.0654C38.373 23.862 38.3716 25.9233 38.9244 27.7124C39.533 29.682 39.4188 32.4571 38.6626 34.0741C37.9172 35.6683 36.8168 36.9542 35.43 37.8525C33.2462 39.2668 30.7669 39.5873 27.8742 38.8295C25.9045 38.3134 23.9706 38.321 22.0773 38.8519C18.5907 39.83 15.2487 38.9313 12.9568 36.3997C11.6446 34.9505 10.844 33.1258 10.6842 31.2208C10.5959 30.169 10.6836 29.5062 11.123 27.902C11.7396 25.6509 11.7423 23.6726 11.1307 21.9878C9.49167 17.4724 12.3294 12.1414 17.0426 10.8809C18.5927 10.4663 20.121 10.4931 21.8243 10.9649ZM17.8373 12.136C15.8972 12.5488 13.7034 14.2705 12.8367 16.0599C12.5911 16.5668 12.2967 17.5891 12.1819 18.3317C12.0002 19.5095 12.0303 19.8998 12.417 21.3863C13.1161 24.0724 13.1586 25.4022 12.6126 27.5034C11.73 30.9001 12.128 33.2964 13.913 35.334C15.8661 37.5638 18.5706 38.2893 21.8049 37.4515C23.8814 36.9133 26.4579 36.8801 27.8171 37.3735C28.4732 37.6117 29.3797 37.7227 30.6825 37.7243C32.3642 37.7265 32.7218 37.6612 33.7266 37.168C37.1717 35.4768 38.6341 31.934 37.5221 27.9728C36.9606 25.9727 36.9618 23.6844 37.5251 21.8613C38.1082 19.9746 37.9941 17.7407 37.2332 16.1481C36.5669 14.7531 35.0595 13.3115 33.5344 12.611C32.0705 11.9385 29.5508 11.869 27.9745 12.4572C26.6426 12.9544 23.3532 12.9747 22.0785 12.4937C21.0487 12.1047 18.8535 11.9197 17.8373 12.136ZM2.86969 13.0156C0.696733 15.3752 -0.0745236 17.2188 0.0382062 19.7823C0.100188 21.191 0.22856 21.736 0.777566 22.9247C1.55524 24.6081 1.54261 25.2074 0.687505 27.2007C-0.761735 30.5789 0.0995884 34.1004 3.08833 37.0166L4.00441 37.9104V36.058C4.00441 33.2511 4.81739 31.1378 6.72156 28.9947C8.13891 27.3996 8.31543 26.9459 8.31623 24.895C8.31703 22.8704 8.11143 22.3846 6.47143 20.539C4.82742 18.6888 4.00441 16.4511 4.00441 13.8312C4.00441 12.9139 3.92558 12.1635 3.8293 12.1635C3.73302 12.1635 3.30115 12.5468 2.86969 13.0156ZM46.1277 13.4148C46.1277 16.1736 45.1646 18.8161 43.4785 20.6846C40.9906 23.4414 40.9042 26.1072 43.2155 28.8047C45.2377 31.1649 46.1178 33.4836 46.1365 36.5009L46.1455 37.9272L47.3518 36.6338C48.8893 34.9858 49.9051 32.9353 50.0726 31.142C50.213 29.6397 49.9783 28.5186 49.1082 26.5359C48.4216 24.9712 48.4438 24.6602 49.386 22.648C50.8268 19.5702 50.1558 16.3895 47.4234 13.3444C46.1758 11.9542 46.1277 11.9568 46.1277 13.4148ZM20.0514 13.8392C20.0514 13.8787 19.5258 14.2352 18.8837 14.6314C17.3069 15.6042 15.4178 17.5262 14.7127 18.8747C14.3944 19.4836 14.0665 19.982 13.9836 19.9824C13.9008 19.9826 13.8332 19.638 13.8332 19.2165C13.8332 16.9814 15.6262 14.629 17.8437 13.9547C18.3578 13.7983 20.0514 13.7097 20.0514 13.8392ZM32.5339 14.1021C33.7312 14.57 34.8126 15.4604 35.4001 16.4625C35.9222 17.3531 36.4146 19.4329 36.1896 19.797C36.1178 19.9129 35.7294 19.4505 35.3265 18.7696C34.4453 17.2801 32.2629 15.1681 30.8827 14.469C30.3312 14.1897 29.8801 13.9176 29.8801 13.8643C29.8801 13.6299 31.7556 13.7981 32.5339 14.1021ZM28.1406 15.2136C32.8514 16.6534 35.8644 21.4571 35.1461 26.3827C34.8246 28.5881 33.9229 30.3687 32.2872 32.0284C28.3306 36.043 22.1341 36.1789 18.0704 32.3404C16.8239 31.1629 15.6932 29.3478 15.2046 27.7396C14.6189 25.8127 14.7519 23.0596 15.5219 21.163C16.5371 18.6632 18.7449 16.4597 21.234 15.4626C23.5985 14.5155 25.6178 14.4427 28.1406 15.2136ZM2.67833 17.226C2.88614 18.3309 3.89389 20.2302 4.94015 21.489C5.48896 22.1492 6.08088 22.9151 6.25539 23.1908C7.09244 24.513 6.84593 26.0745 5.56759 27.5468C4.27701 29.0334 3.21029 30.7984 2.8388 32.0621C2.65246 32.6963 2.43582 33.2152 2.35739 33.2154C2.05571 33.216 1.76205 31.4606 1.83867 30.1137C1.89704 29.0868 2.09282 28.3147 2.56038 27.2673C3.40746 25.3704 3.41067 24.3268 2.57503 22.5893C1.83266 21.0459 1.59335 18.9234 1.99834 17.4774C2.29741 16.4094 2.50984 16.331 2.67833 17.226ZM48.2451 18.2999C48.4298 19.7777 48.2051 21.0645 47.5137 22.486C46.6949 24.1694 46.7043 25.6711 47.545 27.4668C47.8832 28.1893 48.2098 29.2622 48.2705 29.8509C48.3861 30.9696 48.028 33.2156 47.7342 33.2156C47.6407 33.2156 47.4104 32.7418 47.2229 32.163C46.7477 30.6974 45.9184 29.2869 44.7416 27.9427C42.8639 25.7978 42.8613 24.1648 44.7318 21.9878C45.8087 20.7343 46.9755 18.694 47.3522 17.4061C47.5775 16.6362 47.6371 16.574 47.8589 16.8771C47.9971 17.066 48.171 17.7064 48.2451 18.2999ZM14.5083 30.5929C15.3895 32.432 17.6548 34.6583 19.5772 35.5746C20.1615 35.8531 20.2169 35.9305 19.9134 36.0434C19.1247 36.3367 16.9443 35.6751 15.8288 34.8039C14.8209 34.0166 14.0163 32.4403 13.8853 30.9959C13.8259 30.3421 13.8576 29.8081 13.9557 29.8093C14.0538 29.8108 14.3025 30.1632 14.5083 30.5929ZM36.1027 31.3875C35.5712 34.1898 33.3035 36.145 30.7711 35.985L29.7798 35.9223L30.4819 35.5776C32.2757 34.6973 34.2788 32.8118 35.3136 31.0298C36.1035 29.6696 36.403 29.8053 36.1027 31.3875ZM9.18076 32.7452C9.92875 36.6864 13.304 40.0758 17.2544 40.8527C17.9101 40.9816 18.4467 41.153 18.4467 41.2336C18.4467 41.3142 17.8826 41.6859 17.193 42.0597C16.0057 42.7033 15.8332 42.7392 13.9335 42.7389C12.1484 42.7389 11.8161 42.68 10.9154 42.205C9.56167 41.4909 8.34912 40.2428 7.67856 38.8728C7.20337 37.902 7.12976 37.512 7.14139 36.033C7.14861 35.0898 7.26395 34.0476 7.39734 33.7168C7.74736 32.8481 8.60989 31.4111 8.78119 31.4111C8.86162 31.4111 9.04155 32.0116 9.18076 32.7452ZM42.2032 32.802C42.8069 34.0106 42.9536 34.673 42.9427 36.145C42.9225 38.8521 41.1186 41.4814 38.6468 42.4057C36.5238 43.1997 34.0489 42.9256 32.1869 41.69L31.3845 41.1574L32.6149 40.9064C36.7294 40.0669 40.2186 36.599 40.9603 32.6117C41.2169 31.2333 41.4361 31.2668 42.2032 32.802ZM23.2246 41.7527C22.6476 41.9301 21.8725 42.419 21.2134 43.0211C19.0681 44.9809 16.4063 46.0311 13.5323 46.0513L12.1282 46.0614L13.4139 47.2824C14.2496 48.076 15.2323 48.7562 16.2212 49.2256C17.6211 49.8903 17.8868 49.9476 19.5489 49.9448C21.1837 49.9422 21.4974 49.876 22.854 49.2477C24.6582 48.412 25.5677 48.3833 26.9716 49.1175C30.1134 50.7606 33.651 50.0891 36.7001 47.2712L38.0039 46.0662L36.4915 46.0568C33.6624 46.0391 31.4224 45.1896 29.1185 43.2608C27.0346 41.5163 25.3741 41.0915 23.2246 41.7527ZM26.6286 43.6219C27.0378 43.8317 27.5908 44.2369 27.8572 44.5222C28.602 45.3197 30.6452 46.5592 32.0326 47.055C32.7198 47.3006 33.2392 47.5713 33.1866 47.6565C32.9952 47.9661 31.011 48.3013 29.9927 48.1963C29.4184 48.1371 28.3232 47.7969 27.5589 47.4404C25.598 46.5255 24.4294 46.5273 22.4538 47.4482C21.1632 48.0497 20.7442 48.1475 19.4496 48.1499C18.6061 48.1513 17.6533 48.0294 17.2809 47.8725L16.6165 47.5924L18.0124 47.0494C19.7027 46.392 20.5472 45.8837 21.9168 44.699C22.4905 44.203 23.2307 43.6753 23.5616 43.5265C24.4256 43.1383 25.7665 43.1798 26.6286 43.6219Z" fill="url(#paint0_linear_76_14)"/>
<path d="M68.656 17.544C69.216 17.88 69.784 18.208 70.36 18.528C70.952 18.848 71.488 19.208 71.968 19.608C72.448 19.992 72.84 20.432 73.144 20.928C73.448 21.424 73.6 22.008 73.6 22.68C73.6 23.32 73.456 23.92 73.168 24.48C72.88 25.024 72.464 25.504 71.92 25.92C71.392 26.32 70.744 26.64 69.976 26.88C69.224 27.12 68.376 27.24 67.432 27.24C66.76 27.24 66.08 27.16 65.392 27C64.704 26.824 64.08 26.568 63.52 26.232C62.976 25.896 62.528 25.48 62.176 24.984C61.84 24.472 61.672 23.88 61.672 23.208C61.672 22.76 61.76 22.376 61.936 22.056C62.128 21.72 62.368 21.448 62.656 21.24C62.944 21.016 63.264 20.848 63.616 20.736C63.968 20.608 64.312 20.528 64.648 20.496C64.904 20.464 65.112 20.552 65.272 20.76C65.432 20.952 65.472 21.168 65.392 21.408C65.248 21.872 65.168 22.408 65.152 23.016C65.136 23.624 65.216 24.208 65.392 24.768C65.584 25.312 65.872 25.776 66.256 26.16C66.656 26.528 67.192 26.712 67.864 26.712C68.44 26.712 68.936 26.64 69.352 26.496C69.768 26.336 70.096 26.128 70.336 25.872C70.592 25.616 70.76 25.328 70.84 25.008C70.936 24.672 70.944 24.328 70.864 23.976C70.768 23.496 70.576 23.08 70.288 22.728C70 22.376 69.656 22.048 69.256 21.744C68.856 21.44 68.416 21.152 67.936 20.88C67.456 20.608 66.976 20.32 66.496 20.016C65.968 19.68 65.424 19.328 64.864 18.96C64.32 18.592 63.816 18.192 63.352 17.76C62.904 17.312 62.528 16.824 62.224 16.296C61.936 15.752 61.792 15.144 61.792 14.472C61.792 13.832 61.936 13.28 62.224 12.816C62.512 12.352 62.888 11.976 63.352 11.688C63.832 11.384 64.376 11.16 64.984 11.016C65.592 10.872 66.208 10.8 66.832 10.8C67.584 10.8 68.28 10.896 68.92 11.088C69.576 11.28 70.152 11.536 70.648 11.856C71.16 12.16 71.576 12.512 71.896 12.912C72.216 13.296 72.416 13.68 72.496 14.064C72.592 14.464 72.6 14.824 72.52 15.144C72.44 15.464 72.304 15.736 72.112 15.96C71.936 16.184 71.712 16.36 71.44 16.488C71.168 16.6 70.872 16.656 70.552 16.656C70.12 16.656 69.688 16.536 69.256 16.296C69.064 16.184 68.928 16.024 68.848 15.816C68.784 15.592 68.808 15.384 68.92 15.192C69.064 14.92 69.104 14.568 69.04 14.136C68.976 13.704 68.824 13.288 68.584 12.888C68.344 12.472 68.032 12.12 67.648 11.832C67.264 11.544 66.832 11.4 66.352 11.4C66.064 11.4 65.784 11.456 65.512 11.568C65.16 11.712 64.896 11.976 64.72 12.36C64.544 12.728 64.544 13.184 64.72 13.728C64.912 14.256 65.312 14.848 65.92 15.504C66.544 16.16 67.456 16.84 68.656 17.544ZM83.2296 15.36C83.4216 15.36 83.5576 15.448 83.6376 15.624C83.7336 15.784 83.7256 15.944 83.6136 16.104C83.4696 16.28 83.3256 16.504 83.1816 16.776C83.0376 17.032 82.9096 17.352 82.7976 17.736C82.7016 18.04 82.5416 18.504 82.3176 19.128C82.1096 19.736 81.8696 20.424 81.5976 21.192C81.3416 21.96 81.0616 22.76 80.7576 23.592C80.4696 24.408 80.1976 25.184 79.9416 25.92C79.6856 26.64 79.4616 27.264 79.2696 27.792C79.0936 28.32 78.9736 28.672 78.9096 28.848C78.6376 29.648 78.2616 30.312 77.7816 30.84C77.3016 31.384 76.7096 31.656 76.0056 31.656C75.7496 31.656 75.4616 31.608 75.1416 31.512C74.6136 31.336 74.2136 31.04 73.9416 30.624C73.6856 30.224 73.5576 29.792 73.5576 29.328C73.5416 28.864 73.6536 28.424 73.8936 28.008C74.1336 27.592 74.4936 27.288 74.9736 27.096C75.1816 27.016 75.3896 26.976 75.5976 26.976C75.8536 26.976 76.0936 27.032 76.3176 27.144C76.5576 27.256 76.7416 27.408 76.8696 27.6C76.9816 27.776 77.0536 27.968 77.0856 28.176C77.1336 28.384 77.1416 28.576 77.1096 28.752C77.0776 28.944 76.9976 29.104 76.8696 29.232C76.7576 29.36 76.5976 29.424 76.3896 29.424C76.0536 29.424 75.7976 29.48 75.6216 29.592C75.4616 29.704 75.3576 29.832 75.3096 29.976C75.2616 30.136 75.2696 30.288 75.3336 30.432C75.3976 30.576 75.5016 30.68 75.6456 30.744C75.8536 30.856 76.0616 30.912 76.2696 30.912C76.5256 30.912 76.7576 30.84 76.9656 30.696C77.1896 30.552 77.3896 30.36 77.5656 30.12C77.7416 29.896 77.9016 29.64 78.0456 29.352C78.1896 29.064 78.3176 28.784 78.4296 28.512C78.3496 28.256 78.2136 27.856 78.0216 27.312C77.8296 26.768 77.6056 26.152 77.3496 25.464C77.1096 24.776 76.8536 24.048 76.5816 23.28C76.3256 22.496 76.0696 21.752 75.8136 21.048C75.5736 20.328 75.3496 19.68 75.1416 19.104C74.9496 18.512 74.8056 18.056 74.7096 17.736C74.5816 17.352 74.4456 17.032 74.3016 16.776C74.1736 16.504 74.0376 16.28 73.8936 16.104C73.7656 15.944 73.7496 15.784 73.8456 15.624C73.9416 15.448 74.0856 15.36 74.2776 15.36H77.1096C77.2856 15.36 77.4136 15.432 77.4936 15.576C77.5736 15.704 77.5816 15.848 77.5176 16.008C77.4536 16.152 77.4136 16.328 77.3976 16.536C77.3976 16.744 77.4376 16.984 77.5176 17.256C77.5976 17.48 77.6856 17.752 77.7816 18.072C77.8936 18.392 78.0056 18.744 78.1176 19.128C78.2456 19.512 78.3736 19.912 78.5016 20.328C78.6456 20.728 78.7816 21.12 78.9096 21.504C79.2136 22.416 79.5336 23.376 79.8696 24.384C80.2056 23.44 80.5176 22.544 80.8056 21.696C81.0776 20.96 81.3416 20.216 81.5976 19.464C81.8536 18.712 82.0616 18.104 82.2216 17.64C82.3176 17.368 82.3816 17.064 82.4136 16.728C82.4456 16.392 82.4296 16.152 82.3656 16.008C82.2856 15.848 82.2856 15.704 82.3656 15.576C82.4616 15.432 82.5976 15.36 82.7736 15.36H83.2296ZM93.1986 24.24C93.2946 24.144 93.3906 24.096 93.4866 24.096C93.6146 24.096 93.7106 24.168 93.7746 24.312C93.8546 24.456 93.8306 24.616 93.7026 24.792C93.5106 25.064 93.2866 25.344 93.0306 25.632C92.7906 25.904 92.4946 26.152 92.1426 26.376C91.8066 26.6 91.4066 26.784 90.9426 26.928C90.4946 27.072 89.9666 27.144 89.3586 27.144C88.5906 27.144 87.8786 27 87.2226 26.712C86.5666 26.424 85.9906 26.032 85.4946 25.536C84.9986 25.024 84.5986 24.432 84.2946 23.76C83.9906 23.088 83.8066 22.376 83.7426 21.624C83.6786 20.744 83.7586 19.912 83.9826 19.128C84.2226 18.328 84.5826 17.632 85.0626 17.04C85.5426 16.432 86.1186 15.952 86.7906 15.6C87.4626 15.248 88.1986 15.072 88.9986 15.072C89.8146 15.072 90.5186 15.2 91.1106 15.456C91.7186 15.712 92.2146 16.04 92.5986 16.44C92.9986 16.824 93.2946 17.248 93.4866 17.712C93.6786 18.16 93.7746 18.576 93.7746 18.96C93.7746 19.344 93.6786 19.672 93.4866 19.944C93.2946 20.216 93.0546 20.44 92.7666 20.616C92.4946 20.792 92.1906 20.92 91.8546 21C91.5346 21.08 91.2386 21.12 90.9666 21.12C90.1986 21.12 89.9266 20.768 90.1506 20.064C90.2146 19.824 90.2386 19.552 90.2226 19.248C90.2226 18.928 90.1906 18.6 90.1266 18.264C90.0626 17.912 89.9666 17.576 89.8386 17.256C89.7106 16.936 89.5586 16.664 89.3826 16.44C89.2066 16.2 89.0146 16.024 88.8066 15.912C88.6146 15.8 88.3986 15.784 88.1586 15.864C87.7746 15.992 87.4626 16.272 87.2226 16.704C86.9986 17.12 86.8546 17.624 86.7906 18.216C86.7266 18.808 86.7506 19.456 86.8626 20.16C86.9746 20.864 87.1826 21.56 87.4866 22.248C87.9186 23.208 88.4706 23.944 89.1426 24.456C89.8146 24.952 90.4946 25.2 91.1826 25.2C91.5506 25.2 91.9106 25.12 92.2626 24.96C92.6146 24.8 92.9266 24.56 93.1986 24.24ZM105.293 26.136C105.389 26.312 105.381 26.48 105.269 26.64C105.173 26.8 105.037 26.88 104.861 26.88H101.501C101.309 26.88 101.165 26.8 101.069 26.64C100.973 26.48 100.973 26.312 101.069 26.136C101.213 25.864 101.349 25.584 101.477 25.296C101.621 24.992 101.693 24.728 101.693 24.504V18.168C101.677 17.688 101.517 17.288 101.213 16.968C100.909 16.648 100.517 16.52 100.037 16.584C99.6847 16.616 99.3567 16.728 99.0527 16.92C98.7647 17.096 98.5247 17.272 98.3327 17.448V24.504C98.3327 24.728 98.3967 24.992 98.5247 25.296C98.6687 25.584 98.8127 25.864 98.9567 26.136C99.0527 26.312 99.0527 26.48 98.9567 26.64C98.8607 26.8 98.7167 26.88 98.5247 26.88H95.1887C94.9967 26.88 94.8527 26.8 94.7567 26.64C94.6607 26.48 94.6527 26.312 94.7327 26.136C94.8767 25.864 95.0127 25.584 95.1407 25.296C95.2847 24.992 95.3567 24.728 95.3567 24.504V14.424C95.3567 14.04 95.2847 13.712 95.1407 13.44C94.9967 13.168 94.8287 12.936 94.6367 12.744C94.4607 12.568 94.3967 12.376 94.4447 12.168C94.5087 11.944 94.6527 11.792 94.8767 11.712L97.4927 10.968C97.7167 10.904 97.9167 10.944 98.0927 11.088C98.2687 11.216 98.3567 11.392 98.3567 11.616V16.536C98.5007 16.392 98.6767 16.24 98.8847 16.08C99.1087 15.92 99.3647 15.768 99.6527 15.624C99.9567 15.48 100.293 15.36 100.661 15.264C101.029 15.168 101.437 15.12 101.885 15.12C102.237 15.12 102.581 15.184 102.917 15.312C103.253 15.44 103.549 15.624 103.805 15.864C104.061 16.104 104.269 16.408 104.429 16.776C104.589 17.128 104.669 17.544 104.669 18.024V24.504C104.669 24.728 104.733 24.992 104.861 25.296C105.005 25.584 105.149 25.864 105.293 26.136ZM115.832 24.24C115.928 24.144 116.024 24.096 116.12 24.096C116.248 24.096 116.344 24.168 116.408 24.312C116.488 24.456 116.464 24.616 116.336 24.792C116.144 25.064 115.92 25.344 115.664 25.632C115.424 25.904 115.128 26.152 114.776 26.376C114.424 26.6 114.024 26.784 113.576 26.928C113.128 27.072 112.6 27.144 111.992 27.144C111.224 27.144 110.512 27 109.856 26.712C109.2 26.424 108.624 26.032 108.128 25.536C107.632 25.024 107.232 24.432 106.928 23.76C106.624 23.088 106.44 22.376 106.376 21.624C106.312 20.744 106.408 19.912 106.664 19.128C106.936 18.328 107.32 17.632 107.816 17.04C108.328 16.432 108.928 15.952 109.616 15.6C110.32 15.248 111.072 15.072 111.872 15.072C112.496 15.072 113.088 15.176 113.648 15.384C114.208 15.576 114.696 15.84 115.112 16.176C115.528 16.496 115.856 16.872 116.096 17.304C116.336 17.736 116.456 18.184 116.456 18.648C116.456 19.48 116.24 20.144 115.808 20.64C115.376 21.12 114.84 21.496 114.2 21.768C113.576 22.024 112.904 22.2 112.184 22.296C111.464 22.376 110.808 22.424 110.216 22.44C110.648 23.352 111.184 24.04 111.824 24.504C112.48 24.968 113.144 25.2 113.816 25.2C114.184 25.2 114.544 25.12 114.896 24.96C115.248 24.8 115.56 24.56 115.832 24.24ZM110.792 15.864C110.456 15.992 110.168 16.248 109.928 16.632C109.704 17 109.552 17.448 109.472 17.976C109.392 18.504 109.376 19.088 109.424 19.728C109.488 20.352 109.64 20.984 109.88 21.624C110.792 21.256 111.464 20.752 111.896 20.112C112.344 19.456 112.6 18.808 112.664 18.168C112.744 17.512 112.656 16.952 112.4 16.488C112.144 16.008 111.784 15.768 111.32 15.768C111.144 15.768 110.968 15.8 110.792 15.864ZM128.401 26.136C128.497 26.296 128.497 26.456 128.401 26.616C128.305 26.776 128.161 26.856 127.969 26.856H125.521C125.297 26.856 125.097 26.744 124.921 26.52C124.649 26.648 124.345 26.768 124.009 26.88C123.673 26.976 123.297 27.024 122.881 27.024C122.257 27.024 121.625 26.912 120.985 26.688C120.361 26.448 119.793 26.088 119.281 25.608C118.785 25.112 118.377 24.496 118.057 23.76C117.737 23.008 117.577 22.12 117.577 21.096C117.577 20.04 117.713 19.136 117.985 18.384C118.257 17.632 118.625 17.016 119.089 16.536C119.553 16.056 120.089 15.712 120.697 15.504C121.305 15.28 121.945 15.168 122.617 15.168C123.081 15.168 123.489 15.24 123.841 15.384C124.209 15.512 124.529 15.664 124.801 15.84V14.376C124.801 13.992 124.729 13.664 124.585 13.392C124.441 13.12 124.273 12.888 124.081 12.696C123.905 12.52 123.841 12.328 123.889 12.12C123.953 11.896 124.097 11.744 124.321 11.664L126.937 10.92C127.161 10.856 127.361 10.896 127.537 11.04C127.713 11.168 127.801 11.344 127.801 11.568V24.48C127.801 24.704 127.865 24.968 127.993 25.272C128.121 25.576 128.265 25.864 128.425 26.136H128.401ZM124.801 16.464C124.593 16.336 124.369 16.224 124.129 16.128C123.889 16.032 123.633 15.984 123.361 15.984C123.025 15.984 122.705 16.088 122.401 16.296C122.113 16.488 121.857 16.8 121.633 17.232C121.409 17.664 121.233 18.216 121.105 18.888C120.977 19.56 120.913 20.36 120.913 21.288C120.913 21.992 120.961 22.648 121.057 23.256C121.153 23.864 121.305 24.392 121.513 24.84C121.721 25.272 121.993 25.616 122.329 25.872C122.665 26.112 123.081 26.232 123.577 26.232C123.801 26.232 124.017 26.208 124.225 26.16C124.433 26.096 124.625 26.024 124.801 25.944V16.464ZM139.006 24.24C139.102 24.144 139.198 24.096 139.294 24.096C139.422 24.096 139.518 24.168 139.582 24.312C139.662 24.456 139.638 24.616 139.51 24.792C139.318 25.064 139.094 25.344 138.838 25.632C138.598 25.904 138.302 26.152 137.95 26.376C137.598 26.6 137.198 26.784 136.75 26.928C136.302 27.072 135.774 27.144 135.166 27.144C134.398 27.144 133.686 27 133.03 26.712C132.374 26.424 131.798 26.032 131.302 25.536C130.806 25.024 130.406 24.432 130.102 23.76C129.798 23.088 129.614 22.376 129.55 21.624C129.486 20.744 129.582 19.912 129.838 19.128C130.11 18.328 130.494 17.632 130.99 17.04C131.502 16.432 132.102 15.952 132.79 15.6C133.494 15.248 134.246 15.072 135.046 15.072C135.67 15.072 136.262 15.176 136.822 15.384C137.382 15.576 137.87 15.84 138.286 16.176C138.702 16.496 139.03 16.872 139.27 17.304C139.51 17.736 139.63 18.184 139.63 18.648C139.63 19.48 139.414 20.144 138.982 20.64C138.55 21.12 138.014 21.496 137.374 21.768C136.75 22.024 136.078 22.2 135.358 22.296C134.638 22.376 133.982 22.424 133.39 22.44C133.822 23.352 134.358 24.04 134.998 24.504C135.654 24.968 136.318 25.2 136.99 25.2C137.358 25.2 137.718 25.12 138.07 24.96C138.422 24.8 138.734 24.56 139.006 24.24ZM133.966 15.864C133.63 15.992 133.342 16.248 133.102 16.632C132.878 17 132.726 17.448 132.646 17.976C132.566 18.504 132.55 19.088 132.598 19.728C132.662 20.352 132.814 20.984 133.054 21.624C133.966 21.256 134.638 20.752 135.07 20.112C135.518 19.456 135.774 18.808 135.838 18.168C135.918 17.512 135.83 16.952 135.574 16.488C135.318 16.008 134.958 15.768 134.494 15.768C134.318 15.768 134.142 15.8 133.966 15.864ZM144.811 26.136C144.907 26.312 144.907 26.48 144.811 26.64C144.715 26.8 144.571 26.88 144.379 26.88H141.043C140.851 26.88 140.707 26.8 140.611 26.64C140.515 26.48 140.507 26.312 140.587 26.136C140.731 25.864 140.867 25.584 140.995 25.296C141.139 24.992 141.211 24.728 141.211 24.504V14.4C141.211 14.016 141.139 13.688 140.995 13.416C140.851 13.144 140.683 12.912 140.491 12.72C140.315 12.544 140.251 12.344 140.299 12.12C140.363 11.896 140.507 11.752 140.731 11.688L143.347 10.944C143.571 10.88 143.771 10.912 143.947 11.04C144.123 11.168 144.211 11.344 144.211 11.568V24.504C144.211 24.728 144.275 24.992 144.403 25.296C144.531 25.584 144.667 25.864 144.811 26.136ZM148.205 14.328C147.741 14.328 147.341 14.168 147.005 13.848C146.685 13.512 146.525 13.112 146.525 12.648C146.525 12.184 146.685 11.792 147.005 11.472C147.341 11.152 147.741 10.992 148.205 10.992C148.669 10.992 149.061 11.152 149.381 11.472C149.701 11.792 149.861 12.184 149.861 12.648C149.861 13.112 149.701 13.512 149.381 13.848C149.061 14.168 148.669 14.328 148.205 14.328ZM150.461 26.136C150.557 26.312 150.557 26.48 150.461 26.64C150.365 26.8 150.221 26.88 150.029 26.88H146.693C146.501 26.88 146.357 26.8 146.261 26.64C146.165 26.48 146.157 26.312 146.237 26.136C146.381 25.864 146.517 25.584 146.645 25.296C146.789 24.992 146.861 24.728 146.861 24.504V18.84C146.861 18.456 146.789 18.128 146.645 17.856C146.501 17.584 146.333 17.352 146.141 17.16C145.965 16.984 145.901 16.792 145.949 16.584C146.013 16.36 146.157 16.208 146.381 16.128L148.997 15.384C149.221 15.32 149.421 15.36 149.597 15.504C149.773 15.632 149.861 15.808 149.861 16.032V24.504C149.861 24.728 149.925 24.992 150.053 25.296C150.181 25.584 150.317 25.864 150.461 26.136ZM161.098 24.24C161.194 24.144 161.29 24.096 161.386 24.096C161.514 24.096 161.61 24.168 161.674 24.312C161.754 24.456 161.73 24.616 161.602 24.792C161.41 25.064 161.186 25.344 160.93 25.632C160.69 25.904 160.394 26.152 160.042 26.376C159.706 26.6 159.306 26.784 158.842 26.928C158.394 27.072 157.866 27.144 157.258 27.144C156.49 27.144 155.778 27 155.122 26.712C154.466 26.424 153.89 26.032 153.394 25.536C152.898 25.024 152.498 24.432 152.194 23.76C151.89 23.088 151.706 22.376 151.642 21.624C151.578 20.744 151.658 19.912 151.882 19.128C152.122 18.328 152.482 17.632 152.962 17.04C153.442 16.432 154.018 15.952 154.69 15.6C155.362 15.248 156.098 15.072 156.898 15.072C157.714 15.072 158.418 15.2 159.01 15.456C159.618 15.712 160.114 16.04 160.498 16.44C160.898 16.824 161.194 17.248 161.386 17.712C161.578 18.16 161.674 18.576 161.674 18.96C161.674 19.344 161.578 19.672 161.386 19.944C161.194 20.216 160.954 20.44 160.666 20.616C160.394 20.792 160.09 20.92 159.754 21C159.434 21.08 159.138 21.12 158.866 21.12C158.098 21.12 157.826 20.768 158.05 20.064C158.114 19.824 158.138 19.552 158.122 19.248C158.122 18.928 158.09 18.6 158.026 18.264C157.962 17.912 157.866 17.576 157.738 17.256C157.61 16.936 157.458 16.664 157.282 16.44C157.106 16.2 156.914 16.024 156.706 15.912C156.514 15.8 156.298 15.784 156.058 15.864C155.674 15.992 155.362 16.272 155.122 16.704C154.898 17.12 154.754 17.624 154.69 18.216C154.626 18.808 154.65 19.456 154.762 20.16C154.874 20.864 155.082 21.56 155.386 22.248C155.818 23.208 156.37 23.944 157.042 24.456C157.714 24.952 158.394 25.2 159.082 25.2C159.45 25.2 159.81 25.12 160.162 24.96C160.514 24.8 160.826 24.56 161.098 24.24Z" fill="white"/>
<path d="M62.368 43H61.144L64.312 34.324H65.62L68.8 43H67.564L66.784 40.84H63.136L62.368 43ZM64.816 36.196L63.496 39.82H66.436L65.104 36.196C65.044 36.028 64.984 35.824 64.96 35.692C64.936 35.812 64.876 36.016 64.816 36.196ZM70.8893 43H69.7613V37.132H70.7693L70.8773 37.9C71.1773 37.348 71.8013 36.964 72.6293 36.964C73.5413 36.964 74.1893 37.42 74.4893 38.152C74.7653 37.42 75.4733 36.964 76.3853 36.964C77.7293 36.964 78.5453 37.804 78.5453 39.16V43H77.4413V39.436C77.4413 38.512 76.9253 37.984 76.1333 37.984C75.2813 37.984 74.7173 38.584 74.7173 39.52V43H73.6013V39.424C73.6013 38.5 73.0973 37.996 72.3053 37.996C71.4533 37.996 70.8893 38.584 70.8893 39.52V43ZM80.109 45.628V37.132H81.129L81.213 38.188C81.609 37.384 82.401 36.964 83.337 36.964C85.017 36.964 86.061 38.224 86.061 40.024C86.061 41.812 85.077 43.156 83.337 43.156C82.401 43.156 81.621 42.76 81.237 42.04V45.628H80.109ZM81.249 40.072C81.249 41.272 81.945 42.136 83.097 42.136C84.249 42.136 84.933 41.272 84.933 40.072C84.933 38.86 84.249 37.996 83.097 37.996C81.945 37.996 81.249 38.848 81.249 40.072ZM88.4563 43H87.3283V34.168H88.4563V43ZM90.6688 35.74C90.2608 35.74 89.9248 35.404 89.9248 34.996C89.9248 34.576 90.2608 34.252 90.6688 34.252C91.0768 34.252 91.4128 34.576 91.4128 34.996C91.4128 35.404 91.0768 35.74 90.6688 35.74ZM90.1168 43V37.132H91.2448V43H90.1168ZM92.2584 37.132H93.1224V36.196C93.1224 34.756 93.9144 34.168 94.9824 34.168C95.1984 34.168 95.4504 34.18 95.6784 34.216V35.188H95.1744C94.4424 35.188 94.2504 35.56 94.2504 36.196V37.132H95.6424V38.08H94.2504V43H93.1224V38.08H92.2584V37.132ZM96.127 45.628V44.704H96.883C97.423 44.704 97.855 44.62 98.131 43.876L98.335 43.312L95.971 37.132H97.159L98.863 41.86L100.603 37.132H101.767L98.995 44.32C98.599 45.328 98.011 45.748 97.111 45.748C96.739 45.748 96.427 45.7 96.127 45.628ZM105.385 45.628V44.704H106.141C106.681 44.704 107.113 44.62 107.389 43.876L107.593 43.312L105.229 37.132H106.417L108.121 41.86L109.861 37.132H111.025L108.253 44.32C107.857 45.328 107.269 45.748 106.369 45.748C105.997 45.748 105.685 45.7 105.385 45.628ZM111.319 40.06C111.319 38.248 112.615 36.976 114.379 36.976C116.131 36.976 117.427 38.248 117.427 40.06C117.427 41.872 116.131 43.144 114.379 43.144C112.615 43.144 111.319 41.872 111.319 40.06ZM112.459 40.06C112.459 41.284 113.239 42.136 114.379 42.136C115.507 42.136 116.299 41.284 116.299 40.06C116.299 38.836 115.507 37.984 114.379 37.984C113.239 37.984 112.459 38.836 112.459 40.06ZM122.591 37.132H123.707V43H122.699L122.579 42.112C122.243 42.724 121.463 43.144 120.599 43.144C119.231 43.144 118.463 42.22 118.463 40.78V37.132H119.591V40.408C119.591 41.668 120.131 42.148 120.995 42.148C122.027 42.148 122.591 41.488 122.591 40.228V37.132Z" fill="white"/>
<defs>
<linearGradient id="paint0_linear_76_14" x1="25.0626" y1="0" x2="25.0626" y2="25.0626" gradientUnits="userSpaceOnUse">
<stop stop-color="#FF0206"/>
<stop offset="1" stop-color="#FF005E"/>
</linearGradient>
</defs>
</svg>
