<svg width="104" height="103" viewBox="0 0 104 103" fill="none" xmlns="http://www.w3.org/2000/svg">
<g id="_x31_">
<g id="Group">
<g id="Group_2">
<g id="Group_3">
<path id="Vector" d="M3.34961 54.3649C46.9833 56.7144 50.0023 59.5429 55.2457 102.976C57.1771 59.3382 59.9753 56.3438 103.335 51.5119C59.7016 49.1624 56.6826 46.334 51.4393 2.90039C49.5078 46.5386 46.7096 49.533 3.34961 54.3649Z" fill="#320C4F"/>
<path id="Vector_2" d="M51.7045 2.8775L51.1781 2.89251C49.2503 46.4454 46.5661 49.3189 3.31836 54.1389L3.33569 54.5941C46.8563 56.9381 49.7521 59.652 54.9863 103.001L55.5127 102.986C57.4406 59.433 60.1247 56.5595 103.373 51.7388L103.355 51.2836C59.8346 48.9404 56.9388 46.2257 51.7045 2.87671V2.8775ZM63.5525 62.5484C57.2636 69.2793 56.0109 81.2198 55.1286 99.8216C52.8341 81.3099 50.6772 69.4666 43.8902 63.1095C37.0411 56.6939 24.9523 55.3528 6.09285 54.2875C24.83 52.1489 36.7911 50.1218 43.1375 43.3293C49.4264 36.5984 50.6791 24.6579 51.5613 6.05605C53.8559 24.567 56.0127 36.4111 62.7998 42.7682C69.6489 49.1838 81.7377 50.5249 100.597 51.5902C81.8599 53.7287 69.8989 55.7566 63.5525 62.5484Z" fill="#320C4F"/>
</g>
<g id="Group_4">
<path id="Vector_3" d="M3.34961 54.3649C46.9833 56.7144 50.0023 59.5429 55.2457 102.976C57.1771 59.3382 59.9753 56.3438 103.335 51.5119C59.7016 49.1624 56.6826 46.334 51.4393 2.90039C49.5078 46.5386 46.7096 49.533 3.34961 54.3649Z" fill="#320C4F"/>
<path id="Vector_4" d="M51.7045 2.8775L51.1781 2.89251C49.2503 46.4454 46.5661 49.3189 3.31836 54.1389L3.33569 54.5941C46.8563 56.9381 49.7521 59.652 54.9863 103.001L55.5127 102.986C57.4406 59.433 60.1247 56.5595 103.373 51.7388L103.355 51.2836C59.8346 48.9404 56.9388 46.2257 51.7045 2.87671V2.8775ZM63.5525 62.5484C57.2636 69.2793 56.0109 81.2198 55.1286 99.8216C52.8341 81.3099 50.6772 69.4666 43.8902 63.1095C37.0411 56.6939 24.9523 55.3528 6.09285 54.2875C24.83 52.1489 36.7911 50.1218 43.1375 43.3293C49.4264 36.5984 50.6791 24.6579 51.5613 6.05605C53.8559 24.567 56.0127 36.4111 62.7998 42.7682C69.6489 49.1838 81.7377 50.5249 100.597 51.5902C81.8599 53.7287 69.8989 55.7566 63.5525 62.5484Z" fill="#320C4F"/>
</g>
</g>
<g id="Group_5">
<g id="Group_6">
<path id="Vector_5" d="M0.0351562 51.4879C43.6689 53.8375 46.6879 56.6659 51.9312 100.099C53.8627 56.4612 56.6609 53.4668 100.021 48.635C56.3881 46.2854 53.3691 43.457 48.1248 0.0234375C46.1934 43.6617 43.3951 46.6561 0.0351562 51.4879Z" fill="#EFEAE6"/>
<path id="Vector_6" d="M48.3862 0.00079029L47.8598 0.0158058C45.9319 43.5687 43.2478 46.4422 0 51.2622L0.0173349 51.7174C43.5379 54.0614 46.4337 56.7752 51.668 100.124L52.1944 100.109C54.1222 56.5563 56.8064 53.6828 100.054 48.8621L100.037 48.4069C56.5162 46.0636 53.6204 43.349 48.3862 0V0.00079029ZM60.2341 59.6724C53.9452 66.4034 52.6925 78.3438 51.8103 96.9457C49.5157 78.4339 47.3589 66.5906 40.5718 60.2336C33.7227 53.818 21.6339 52.4769 2.77449 51.4115C21.5117 49.273 33.4727 47.2459 39.8191 40.4534C46.108 33.7225 47.3607 21.782 48.243 3.18013C50.5375 21.6911 52.6944 33.5352 59.4814 39.8923C66.3305 46.3078 78.4193 47.649 97.2787 48.7143C78.5416 50.8528 66.5805 52.8807 60.2341 59.6724Z" fill="#320C4F"/>
</g>
<g id="Group_7">
<path id="Vector_7" d="M0.0351562 51.4879C43.6689 53.8375 46.6879 56.6659 51.9312 100.099C53.8627 56.4612 56.6609 53.4668 100.021 48.635C56.3881 46.2854 53.3691 43.457 48.1248 0.0234375C46.1934 43.6617 43.3951 46.6561 0.0351562 51.4879Z" fill="#EA0F33"/>
<path id="Vector_8" d="M48.3862 0.00079029L47.8598 0.0158058C45.9319 43.5687 43.2478 46.4422 0 51.2622L0.0173349 51.7174C43.5379 54.0614 46.4337 56.7752 51.668 100.124L52.1944 100.109C54.1222 56.5563 56.8064 53.6828 100.054 48.8621L100.037 48.4069C56.5162 46.0636 53.6204 43.349 48.3862 0V0.00079029ZM60.2341 59.6724C53.9452 66.4034 52.6925 78.3438 51.8103 96.9457C49.5157 78.4339 47.3589 66.5906 40.5718 60.2336C33.7227 53.818 21.6339 52.4769 2.77449 51.4115C21.5117 49.273 33.4727 47.2459 39.8191 40.4534C46.108 33.7225 47.3607 21.782 48.243 3.18013C50.5375 21.6911 52.6944 33.5352 59.4814 39.8923C66.3305 46.3078 78.4193 47.649 97.2787 48.7143C78.5416 50.8528 66.5805 52.8807 60.2341 59.6724Z" fill="#320C4F"/>
</g>
</g>
</g>
</g>
</svg>
