<svg width="45" height="48" viewBox="0 0 45 48" fill="none" xmlns="http://www.w3.org/2000/svg">
<g id="_x31_">
<g id="Group">
<g id="Group_2">
<g id="Group_3">
<path id="Vector" d="M1.45886 25.023C20.4537 26.1046 21.7679 27.4066 24.0505 47.4004C24.8913 27.3124 26.1095 25.934 44.9851 23.7097C25.9903 22.6281 24.676 21.3261 22.3935 1.33228C21.5527 21.4203 20.3345 22.7988 1.45886 25.023Z" fill="#ADADAD"/>
<path id="Vector_2" d="M22.5088 1.32239L22.2797 1.3293C21.4404 21.3781 20.272 22.7008 1.44513 24.9196L1.45268 25.1292C20.3983 26.2082 21.6589 27.4575 23.9375 47.4124L24.1666 47.4055C25.0059 27.3567 26.1744 26.0339 45.0012 23.8148L44.9936 23.6052C26.0481 22.5266 24.7874 21.2769 22.5088 1.32202V1.32239ZM27.6665 28.7908C24.9288 31.8892 24.3835 37.3858 23.9994 45.9488C23.0005 37.4273 22.0616 31.9754 19.107 29.0491C16.1255 26.0958 10.8629 25.4784 2.65293 24.988C10.8097 24.0036 16.0166 23.0704 18.7794 19.9436C21.5171 16.8452 22.0624 11.3486 22.4465 2.78557C23.4454 11.3068 24.3843 16.759 27.3389 19.6853C30.3205 22.6386 35.583 23.256 43.793 23.7464C35.6362 24.7308 30.4293 25.6643 27.6665 28.7908Z" fill="#ADADAD"/>
</g>
<g id="Group_4">
<path id="Vector_3" d="M1.45886 25.023C20.4537 26.1046 21.7679 27.4066 24.0505 47.4004C24.8913 27.3124 26.1095 25.934 44.9851 23.7097C25.9903 22.6281 24.676 21.3261 22.3935 1.33228C21.5527 21.4203 20.3345 22.7988 1.45886 25.023Z" fill="#ADADAD"/>
<path id="Vector_4" d="M22.5088 1.32239L22.2797 1.3293C21.4404 21.3781 20.272 22.7008 1.44513 24.9196L1.45268 25.1292C20.3983 26.2082 21.6589 27.4575 23.9375 47.4124L24.1666 47.4055C25.0059 27.3567 26.1744 26.0339 45.0012 23.8148L44.9936 23.6052C26.0481 22.5266 24.7874 21.2769 22.5088 1.32202V1.32239ZM27.6665 28.7908C24.9288 31.8892 24.3835 37.3858 23.9994 45.9488C23.0005 37.4273 22.0616 31.9754 19.107 29.0491C16.1255 26.0958 10.8629 25.4784 2.65293 24.988C10.8097 24.0036 16.0166 23.0704 18.7794 19.9436C21.5171 16.8452 22.0624 11.3486 22.4465 2.78557C23.4454 11.3068 24.3843 16.759 27.3389 19.6853C30.3205 22.6386 35.583 23.256 43.793 23.7464C35.6362 24.7308 30.4293 25.6643 27.6665 28.7908Z" fill="#ADADAD"/>
</g>
</g>
<g id="Group_5">
<g id="Group_6">
<path id="Vector_5" d="M0.0137329 23.701C19.0086 24.7826 20.3228 26.0846 22.6054 46.0784C23.4462 25.9903 24.6643 24.6119 43.54 22.3877C24.5456 21.3061 23.2313 20.0041 20.9484 0.0102539C20.1075 20.0983 18.8894 21.4767 0.0137329 23.701Z" fill="#EA0F33"/>
<path id="Vector_6" d="M21.0637 0.000363796L20.8345 0.00727591C19.9953 20.056 18.8268 21.3788 0 23.5976L0.0075463 23.8071C18.9531 24.8862 20.2138 26.1354 22.4923 46.0904L22.7215 46.0834C23.5607 26.0347 24.7292 24.7119 43.5561 22.4928L43.5485 22.2832C24.6029 21.2046 23.3423 19.9549 21.0637 0V0.000363796ZM26.2214 27.4691C23.4837 30.5676 22.9384 36.0641 22.5543 44.6272C21.5554 36.1056 20.6165 30.6538 17.6619 27.7274C14.6803 24.7741 9.41778 24.1568 1.20781 23.6664C9.36456 22.6819 14.5715 21.7488 17.3342 18.622C20.072 15.5235 20.6173 10.0269 21.0014 1.46391C22.0002 9.9851 22.9392 15.4373 25.8937 18.3637C28.8753 21.317 34.1379 21.9343 42.3479 22.4247C34.1911 23.4092 28.9841 24.3427 26.2214 27.4691Z" fill="#ADADAD"/>
</g>
<g id="Group_7">
<path id="Vector_7" d="M0.0137329 23.701C19.0086 24.7826 20.3228 26.0846 22.6054 46.0784C23.4462 25.9903 24.6643 24.6119 43.54 22.3877C24.5456 21.3061 23.2313 20.0041 20.9484 0.0102539C20.1075 20.0983 18.8894 21.4767 0.0137329 23.701Z" fill="#EA0F33"/>
<path id="Vector_8" d="M21.0637 0.000363796L20.8345 0.00727591C19.9953 20.056 18.8268 21.3788 0 23.5976L0.0075463 23.8071C18.9531 24.8862 20.2138 26.1354 22.4923 46.0904L22.7215 46.0834C23.5607 26.0347 24.7292 24.7119 43.5561 22.4928L43.5485 22.2832C24.6029 21.2046 23.3423 19.9549 21.0637 0V0.000363796ZM26.2214 27.4691C23.4837 30.5676 22.9384 36.0641 22.5543 44.6272C21.5554 36.1056 20.6165 30.6538 17.6619 27.7274C14.6803 24.7741 9.41778 24.1568 1.20781 23.6664C9.36456 22.6819 14.5715 21.7488 17.3342 18.622C20.072 15.5235 20.6173 10.0269 21.0014 1.46391C22.0002 9.9851 22.9392 15.4373 25.8937 18.3637C28.8753 21.317 34.1379 21.9343 42.3479 22.4247C34.1911 23.4092 28.9841 24.3427 26.2214 27.4691Z" fill="#ADADAD"/>
</g>
</g>
</g>
</g>
</svg>
