<svg width="1527" height="483" viewBox="0 0 1527 483" fill="none" xmlns="http://www.w3.org/2000/svg">
<path d="M1526.97 129.45C1497.88 102.808 1460.18 105.301 1436.4 73.5927C1400.27 25.4181 1362.8 16.0489 1348.08 73.5927C1333.36 131.137 1311.95 136.488 1262.43 81.6219C1212.92 26.7559 1166.08 65.5636 1131.29 137.828C1096.49 210.092 1037.61 204.739 976.054 143.181C914.496 81.6241 889.069 119.094 870.335 164.039C851.599 208.987 765.954 202.063 731.16 140.504C696.366 78.9462 644.175 127.121 608.046 82.9597C571.913 38.7984 535.781 93.6644 486.269 153.15C436.754 212.636 395.271 155.222 343.08 89.651C290.89 24.078 273.494 101.696 240.037 45.4897C206.583 -10.7164 193.2 119.092 163.76 44.1519C134.319 -30.788 112.907 -1.34717 83.4662 65.5636C62.394 113.456 29.6668 105.133 0.00488281 139.223V424.33C14.4974 429.089 31.9048 432.66 52.6875 434.91C312.302 463.013 810.116 436.247 1136.64 445.614C1345.38 451.604 1469.9 396.884 1526.97 327.261V129.448V129.45Z" fill="#FF012A"/>
<path d="M1526.97 154.078C1497.41 112.48 1452.11 121.339 1425.11 84.8741C1389.92 37.3558 1353.11 27.5581 1338.43 82.6953C1323.7 137.723 1302.39 142.206 1253.78 88.6619C1249.08 83.5294 1244.41 79.238 1239.78 75.7442C1196 42.609 1155.55 80.3137 1124.12 145.084C1099.57 195.862 1062.99 208.002 1021.77 189.428C1005.39 182.046 988.283 169.751 970.994 152.915C910.348 93.5459 884.816 129.528 865.877 172.572C849.908 208.495 788.571 208.978 748.879 173.028C740.989 165.899 733.949 157.562 728.313 147.881C693.792 88.5798 643.357 136.978 607.006 93.4365C584.115 66.0172 562.717 79.0124 536.829 102.648C520.57 117.492 503.156 138.585 483.921 162.038C481.462 165.024 479.021 167.738 476.598 170.2C439.311 207.818 405.077 180.013 367.117 133.707C358.268 122.898 349.186 111.375 339.771 99.7518C296.637 46.1142 276.901 89.8789 252.212 76.1271C247.243 73.3557 242.07 68.1025 236.459 59.1208C203.043 5.45583 189.287 129.737 159.192 55.8503C157.975 52.8625 156.753 50.0456 155.55 47.3836C126.998 -16.2294 106.418 16.1628 76.5352 76.6832C60.379 109.406 39.553 118.805 16.1084 129.815C10.6933 132.358 5.3102 135.449 0.00683594 139.553V436.284C11.6095 439.228 24.7893 441.537 39.7125 443.162C298.682 471.349 795.058 445.286 1123.44 454.377C1350.44 460.663 1477.23 396.581 1526.97 319.53V154.075L1526.97 154.078Z" fill="black"/>
<path d="M1526.97 180.649C1499.02 119.794 1446.29 135.979 1416.41 95.1067C1382.16 48.2539 1346.01 38.0164 1331.38 90.7515C1316.64 143.263 1295.61 146.714 1247.71 94.6555C1243.07 89.6005 1238.4 85.4253 1233.79 82.0045C1190.42 49.8128 1150.92 87.1323 1119.55 151.297C1095.36 201.115 1059.45 213.444 1018.76 196.269C1002.55 189.428 985.571 177.836 968.521 161.603C908.634 104.585 883.314 138.992 864.008 180.059C847.882 214.361 787.591 213.969 748.592 178.709C740.691 171.603 733.646 163.524 728.056 154.21C693.811 97.1693 645.109 145.793 608.556 102.865C584.97 75.165 564.351 90.9201 537.912 112.432C521.252 125.988 503.594 145.943 484.163 169.876C481.719 172.886 479.288 175.644 476.865 178.158C440.008 216.394 404.826 189.911 366.675 142.949C357.73 131.907 348.511 120.356 339.048 108.799C296.038 56.2603 276.089 99.0017 251.268 87.4263C246.275 85.088 241.085 80.245 235.47 71.6986C202.095 20.5725 187.947 139.332 157.214 66.4978C155.956 63.5168 154.668 60.7135 153.419 58.0516C123.805 -5.0532 103.679 30.0238 72.1914 86.754C55.2489 117.277 35.1932 131.027 10.4198 139.624C6.9101 140.841 3.43909 142.299 0.00683594 144.102V445.831C8.9339 447.679 18.6814 449.199 29.3292 450.364C287.653 478.638 782.589 453.274 1112.84 462.089C1358.53 468.649 1486.14 394.415 1526.98 310.297V180.644L1526.97 180.649Z" fill="#FF012A"/>
<path d="M1526.97 209.377C1502.58 125.093 1442.59 149.378 1410.13 104.381C1376.81 58.198 1341.46 47.5548 1326.75 97.8467C1312.11 147.881 1291.14 150.347 1244.07 99.6904C1239.45 94.7244 1234.79 90.6471 1230.21 87.3038C1187.29 56.0055 1148.58 92.9285 1117.39 156.548C1093.47 205.359 1058.31 217.926 1018.17 202.152C1002.14 195.853 985.3 184.943 968.464 169.334C909.418 114.586 884.146 147.466 864.555 186.589C848.203 219.243 789.03 218.005 750.719 183.434C742.808 176.351 735.761 168.529 730.212 159.582C696.245 104.807 649.262 153.663 612.519 111.336C588.231 83.3565 568.36 101.885 541.406 121.257C524.317 133.539 506.418 152.323 486.818 176.757C484.386 179.788 481.963 182.587 479.545 185.16C443.06 223.954 406.991 198.852 368.646 151.236C359.605 139.964 350.27 128.368 340.742 116.895C297.959 65.3724 277.692 107.17 252.738 97.7738C247.72 95.8707 242.494 91.4471 236.892 83.3268C203.438 34.8217 189.002 147.979 157.647 76.1934C156.348 73.2192 154.999 70.4274 153.702 67.77C123.131 5.13241 103.328 43.0172 70.2587 95.873C52.5026 124.252 33.2195 142.288 7.14028 148.48C4.7336 149.053 2.35426 149.741 0 150.573V453.591C6.68219 454.774 13.7906 455.786 21.3525 456.618C279.034 484.976 772.529 460.312 1104.64 468.854C1370.05 475.68 1496.89 390.097 1526.97 299.21V209.379L1526.97 209.377Z" fill="black"/>
<path d="M1526.97 240.438C1526.86 239.759 1526.75 239.079 1526.63 238.402C1507.22 128.969 1440.69 161.359 1406.08 112.751C1373.69 67.2454 1339.06 56.1669 1324.35 104.038C1309.75 151.575 1288.91 153.077 1242.66 103.82C1238.08 98.9402 1233.43 94.9633 1228.87 91.6996C1186.4 61.2948 1148.57 97.8622 1117.48 160.896C1093.88 208.734 1059.41 221.506 1019.81 207.129C1003.95 201.372 987.271 191.142 970.652 176.159C912.45 123.684 887.218 155.041 867.345 192.213C850.765 223.224 792.795 221.041 755.088 187.256C747.184 180.175 740.117 172.631 734.613 164.053C700.926 111.548 655.646 160.639 618.73 118.905C593.733 90.6467 574.573 111.958 547.147 129.181C529.6 140.198 511.486 157.799 491.718 182.737C489.297 185.79 486.884 188.63 484.47 191.26C448.356 230.608 411.399 206.892 372.863 158.622C363.726 147.117 354.277 135.478 344.68 124.087C302.13 73.5789 281.541 114.438 256.455 107.218C251.414 105.75 246.161 101.739 240.561 94.0494C207.112 48.1173 192.291 155.723 160.329 84.9833C158.989 82.0159 157.579 79.2355 156.234 76.5804C124.712 14.41 105.174 55.1823 70.5779 104.084C51.9739 130.38 33.4794 152.628 6.11479 156.427C4.05452 156.714 2.01932 157.088 0.00463867 157.562V459.874C4.98665 460.661 10.1852 461.358 15.6276 461.962C272.664 490.407 764.719 466.443 1098.68 474.709C1387.33 481.854 1511.2 381.876 1526.97 283.954V240.442V240.438Z" fill="#FF012A"/>
<path d="M1404.11 120.277C1372.63 75.4525 1338.73 63.9365 1324.02 109.388C1309.45 154.426 1288.75 154.969 1243.32 107.106C1238.77 102.313 1234.14 98.4368 1229.61 95.253C1187.58 65.7392 1150.63 101.953 1119.63 164.4C1096.36 211.264 1062.57 224.241 1023.53 211.264C1007.84 206.049 991.312 196.5 974.905 182.14C917.548 131.939 892.355 161.779 872.201 196.992C855.391 226.365 798.558 223.304 761.524 190.23C753.613 183.165 746.541 175.888 741.078 167.675C707.676 117.444 664.08 166.774 627.002 125.626C601.292 97.0944 582.802 121.182 554.952 136.255C536.918 146.017 518.617 162.424 498.685 187.867C496.276 190.941 493.874 193.822 491.462 196.511C455.713 236.409 417.874 214.083 379.146 165.158C369.911 153.424 360.351 141.737 350.685 130.43C308.377 80.9337 287.455 120.856 262.24 115.81C257.173 114.775 251.897 111.179 246.298 103.92C212.852 60.5612 197.631 162.615 165.077 92.9238C163.693 89.9633 162.226 87.1942 160.828 84.5414C128.363 22.836 109.01 66.5779 72.9572 111.446C53.4531 135.72 35.7858 162.098 7.14948 163.527C4.72912 163.647 2.34979 163.891 0.00463867 164.272V464.914C3.8608 465.479 7.84231 465.994 11.9651 466.454C268.357 494.983 758.971 471.721 1094.8 479.711C1430.63 487.702 1542.26 353.577 1523.34 244.889C1504.43 136.198 1438.32 169.001 1404.11 120.275V120.277Z" fill="black"/>
<path d="M1404.02 127.025C1373.46 82.8891 1340.29 70.9309 1325.58 113.957C1311.04 156.5 1290.47 156.083 1245.87 109.613C1241.36 104.909 1236.74 101.131 1232.23 98.0266C1190.66 69.4016 1154.58 105.265 1123.67 167.125C1100.74 213.016 1067.62 226.201 1029.13 214.619C1013.61 209.946 997.242 201.079 981.047 187.343C924.542 139.414 899.377 167.741 878.945 200.994C861.9 228.735 806.209 224.794 769.847 192.427C761.932 185.381 754.853 178.37 749.433 170.519C716.323 122.567 674.391 172.141 637.165 131.57C610.737 102.767 592.869 129.619 564.645 142.555C546.087 151.06 527.633 166.271 507.539 192.222C505.141 195.317 502.748 198.239 500.342 200.99C464.955 241.432 426.236 220.501 387.316 170.92C377.986 158.953 368.314 147.222 358.578 135.998C316.515 87.5065 295.252 126.556 269.909 123.629C264.815 123.041 259.518 119.849 253.919 113.018C220.48 72.2345 204.842 168.739 171.709 100.089C170.282 97.1355 168.755 94.3801 167.31 91.7296C133.908 30.4868 114.623 77.2667 77.2258 118.034C56.7599 140.344 39.9746 170.779 10.0711 169.853C6.62749 169.746 3.27728 169.885 0 170.318V468.884C3.30235 469.351 6.69359 469.784 10.1897 470.174C70.8877 476.965 144.741 480.872 226.588 482.986H756.656C855.346 482.2 951.807 481.774 1040 482.986H1173.35C1448.08 469.401 1538.8 349.447 1521.94 250.596C1503.53 142.65 1437.84 175.87 1404.02 127.021L1404.02 127.025Z" fill="#FF012A"/>
<path d="M1405.65 133.065C1376 89.6214 1343.57 77.2188 1328.86 117.82C1314.35 157.87 1293.9 156.493 1250.14 111.414C1245.66 106.796 1241.05 103.118 1236.57 100.094C1195.46 72.3553 1160.25 107.872 1129.43 169.145C1106.83 214.065 1074.37 227.456 1036.46 217.269C1021.09 213.139 1004.89 204.951 988.91 191.839C933.262 146.185 908.117 173.005 887.412 204.29C870.13 230.403 815.581 225.578 779.895 193.918C771.973 186.889 764.892 180.146 759.511 172.659C726.695 126.993 686.415 176.811 649.05 136.809C621.897 107.738 604.608 137.331 576.063 148.148C556.949 155.39 538.375 169.411 518.116 195.869C515.73 198.984 513.344 201.947 510.944 204.757C475.917 245.737 436.321 226.208 397.208 175.973C387.781 163.775 377.997 151.997 368.191 140.857C326.381 93.3682 304.78 131.499 279.301 130.74C274.184 130.587 268.863 127.807 263.265 121.41C229.836 83.2059 213.764 174.158 180.066 106.55C178.596 103.603 177.012 100.859 175.517 98.2112C141.188 37.4288 121.829 87.2922 83.2175 123.919C61.7123 144.319 45.8843 178.739 14.7182 175.476C9.61314 174.94 4.72684 174.942 0.00463867 175.626V471.903C3.28876 472.371 6.66176 472.804 10.1373 473.193C48.5873 477.519 92.3315 480.696 140.048 482.998H1220.23C1459.52 458.895 1537.71 348.003 1522.26 255.605C1504.35 148.403 1439.08 182.044 1405.65 133.069L1405.65 133.065Z" fill="black"/>
<path d="M1408.83 138.455C1380.07 95.7111 1348.4 82.8595 1333.68 121.031C1319.2 158.593 1298.87 156.254 1255.95 112.565C1251.5 108.034 1246.91 104.456 1242.45 101.511C1201.8 74.6572 1167.46 109.83 1136.73 170.514C1114.48 214.464 1082.66 228.07 1045.32 219.268C1030.11 215.683 1014.08 208.173 998.311 195.686C943.522 152.305 918.389 177.623 897.415 206.936C879.891 231.427 826.486 225.713 791.477 194.759C783.549 187.748 776.465 181.271 771.123 174.147C738.61 130.772 699.962 180.838 662.471 141.397C634.587 112.061 617.838 144.36 589.015 153.091C569.313 159.057 550.65 171.902 530.229 198.868C527.854 202.004 525.477 205.008 523.082 207.877C488.409 249.392 447.942 231.267 408.637 180.378C399.115 167.948 389.222 156.124 379.342 145.071C337.793 98.5805 315.848 135.793 290.231 137.206C285.092 137.488 279.747 135.123 274.148 129.154C240.73 93.5323 224.207 178.935 189.962 112.362C188.448 109.422 186.807 106.689 185.26 104.043C150.01 43.719 130.408 96.682 90.7475 129.152C68.1119 147.683 53.3323 186.032 20.9013 180.446C13.5058 179.172 6.59567 179.022 0.00463867 180.378V474.043C3.75369 474.6 7.62124 475.105 11.6255 475.559C38.0603 478.549 67.002 480.999 98.0177 483H1246.61C1467.46 454.109 1538.61 348.513 1524.13 259.96C1506.71 153.503 1441.86 187.571 1408.82 138.462L1408.83 138.455Z" fill="#FF012A"/>
<path d="M1526.97 261.408C1509.49 158.517 1445.76 192.145 1413.37 143.264C1385.5 101.226 1354.59 87.9258 1339.87 123.661C1325.43 158.736 1305.2 155.438 1263.13 113.132C1258.71 108.69 1254.13 105.21 1249.7 102.343C1209.51 76.3733 1176.04 111.202 1145.4 171.298C1123.48 214.277 1092.3 228.099 1055.55 220.683C1040.5 217.645 1024.64 210.815 1009.08 198.95C955.159 157.843 930.023 181.666 908.789 208.996C891.017 231.871 838.763 225.266 804.431 195.014C796.495 188.022 789.412 181.816 784.109 175.05C751.908 133.972 714.871 184.289 677.264 145.397C648.644 115.801 632.401 150.762 603.341 157.444C583.023 162.116 564.294 173.798 543.714 201.277C541.351 204.433 538.983 207.478 536.592 210.407C502.272 252.453 460.829 235.818 421.438 184.193C411.793 171.551 401.818 159.659 391.865 148.692C350.58 103.198 328.286 139.494 302.533 143.079C297.369 143.797 292.004 141.846 286.402 136.306C253.002 103.268 236.01 183.122 201.227 117.581C199.67 114.648 197.97 111.927 196.375 109.285C160.208 49.4189 140.178 105.459 99.6468 133.794C75.7828 150.479 62.1541 192.724 28.456 184.827C18.1387 182.409 8.81278 182.167 0.00878906 185.007V475.37C4.63527 476.104 9.4532 476.76 14.4831 477.332C33.3764 479.481 53.5598 481.355 74.8598 482.989H1265.97C1438.69 456.791 1513.89 382.624 1526.98 309.229V261.405L1526.97 261.408Z" fill="black"/>
<path d="M1526.97 244.408C1505.34 167.057 1448.76 193.004 1419.1 147.562C1392.12 106.236 1361.97 92.484 1347.25 125.783C1332.83 158.378 1312.72 154.119 1271.49 113.191C1267.1 108.836 1262.54 105.456 1258.13 102.669C1218.41 77.5789 1185.81 112.07 1155.25 171.574C1133.68 213.584 1103.12 227.63 1066.96 221.588C1052.07 219.099 1036.39 212.943 1021.04 201.701C967.986 162.866 942.832 185.201 921.347 210.546C903.32 231.812 852.221 224.307 818.568 194.761C810.624 187.787 803.543 181.85 798.276 175.446C766.394 136.67 730.955 187.238 693.239 148.893C663.875 119.04 648.111 156.617 618.846 161.293C597.89 164.643 579.117 175.193 558.38 203.182C556.026 206.359 553.669 209.445 551.283 212.433C517.311 255.008 474.996 239.786 435.42 187.502C425.677 174.63 415.597 162.69 405.569 151.808C364.558 107.302 341.908 142.687 316.014 148.446C310.827 149.599 305.439 148.063 299.835 142.954C266.456 112.501 248.975 186.81 213.671 122.299C212.068 119.372 210.313 116.662 208.668 114.023C171.595 54.6106 150.94 113.666 109.727 137.933C84.5301 152.77 72.1617 198.902 37.1918 188.701C23.3306 184.658 11.3223 184.515 0.00219727 190.205V475.951C5.84114 476.97 12.0037 477.856 18.5218 478.602C32.5904 480.211 47.3724 481.669 62.7993 482.989H1281.55C1433.38 457.719 1506.19 394.912 1526.97 329.602V244.406L1526.97 244.408Z" fill="#FF012A"/>
<path d="M1526.97 232.019C1502.75 175.088 1452.85 194.189 1425.84 152.161C1399.75 111.553 1370.37 97.3498 1355.64 128.204C1341.27 158.324 1321.24 153.1 1280.87 113.549C1276.52 109.283 1271.98 105.999 1267.59 103.294C1228.33 79.0832 1196.6 113.237 1166.13 172.151C1144.9 213.192 1114.96 227.468 1079.41 222.796C1064.66 220.859 1049.17 215.375 1034.01 204.757C981.842 168.194 956.656 189.048 934.928 212.401C916.638 232.06 866.7 223.657 833.729 194.811C825.777 187.856 818.701 182.192 813.468 176.144C781.919 139.674 748.052 190.499 710.238 152.69C680.127 122.583 663.798 157.275 635.378 165.446C614.52 171.442 594.966 176.887 574.071 205.391C571.728 208.588 569.379 211.713 566.999 214.764C533.372 257.864 490.191 244.062 450.428 191.119C440.587 178.017 430.402 166.027 420.299 155.231C379.565 111.71 356.554 146.185 330.522 154.119C325.312 155.707 319.902 154.588 314.298 149.905C280.946 122.041 262.957 190.805 227.144 127.317C225.497 124.398 223.687 121.699 221.989 119.062C184.013 60.1009 158.107 114.739 120.835 142.373C92.2743 150.212 83.2014 205.377 46.953 192.879C28.953 186.673 14.1688 187.001 0.00219727 197.574V476.576C7.30201 478.002 15.1511 479.206 23.5836 480.176C32.2394 481.172 41.1733 482.109 50.3511 482.993H1298.95C1432.31 458.589 1501.42 404.749 1526.97 346.836V232.021L1526.97 232.019Z" fill="black"/>
<path d="M1526.97 223.162C1501.51 182.253 1457.86 195.305 1433.44 156.68C1408.21 116.794 1379.62 102.14 1364.88 130.544C1350.54 158.196 1330.61 152.006 1291.1 113.827C1286.78 109.649 1282.25 106.463 1277.89 103.838C1239.1 80.5026 1208.24 114.324 1177.85 172.647C1156.97 212.72 1127.63 227.233 1092.69 223.921C1078.08 222.538 1062.78 217.725 1047.84 207.731C996.551 173.44 971.311 192.814 949.354 214.174C930.789 232.233 882.024 222.925 849.737 194.779C841.778 187.842 834.706 182.452 829.506 176.759C798.301 142.602 765.988 193.683 728.085 156.404C697.222 126.05 681.679 163.107 652.756 169.513C631 174.331 611.66 178.495 590.611 207.512C588.277 210.73 585.938 213.896 583.564 217.007C550.278 260.628 506.235 248.246 466.283 194.647C456.345 181.314 446.057 169.272 435.876 158.565C395.428 116.026 372.049 149.592 345.879 159.704C340.646 161.726 335.215 161.024 329.606 156.769C296.286 131.496 277.774 194.72 241.466 132.251C239.773 129.338 237.911 126.651 236.16 124.019C197.289 65.5065 170.881 122.424 132.792 146.732C103.032 152.104 95.096 211.763 57.5645 196.976C34.9129 188.051 17.4622 189.387 0.0114746 207.501V476.805C8.92942 478.793 18.7362 480.422 29.4979 481.667C33.4156 482.12 37.3903 482.562 41.4174 482.991H1315.87C1433.21 459.735 1498.31 413.35 1526.98 362.203V223.16L1526.97 223.162Z" fill="#FF012A"/>
<path d="M1526.97 218.279C1501.41 189.592 1463.6 197.382 1441.69 162.157C1417.34 123 1389.52 107.899 1374.79 133.844C1360.48 159.037 1340.64 151.876 1302 115.067C1297.7 110.976 1293.2 107.888 1288.86 105.345C1250.54 82.8823 1220.55 116.373 1190.23 174.106C1169.7 213.212 1140.97 227.974 1106.63 226.012C1092.17 225.184 1077.07 221.039 1062.32 211.667C1011.93 179.646 986.61 197.548 964.439 216.909C945.587 233.373 898.007 223.158 866.401 195.709C858.436 188.79 851.371 183.676 846.2 178.336C815.355 146.498 784.574 197.836 746.587 161.079C714.965 130.483 700.228 169.944 670.79 174.544C648.109 178.088 629.006 181.066 607.806 210.598C605.481 213.835 603.152 217.041 600.784 220.214C567.836 264.352 522.936 253.392 482.795 199.139C472.76 185.577 462.368 173.482 452.11 162.863C411.951 121.3 388.198 153.964 361.889 166.255C356.631 168.712 351.184 168.427 345.569 164.598C312.29 141.914 293.23 199.604 256.439 138.147C254.7 135.241 252.784 132.566 250.983 129.936C211.223 71.8676 184.309 131.071 145.401 152.049C114.445 154.955 107.647 219.104 68.8275 202.031C41.1575 189.861 21.3684 192.865 0.00683594 221.549V477.644C8.27525 479.773 17.3869 481.564 27.3965 482.993H1337.17C1437.45 460.88 1496.9 421.406 1526.98 377.179V218.281L1526.97 218.279Z" fill="black"/>
<path d="M1526.97 215.56C1502.29 195.85 1469.9 199.171 1450.44 167.337C1426.95 128.915 1399.92 113.371 1385.18 136.846C1370.9 159.588 1351.15 151.452 1313.38 116.006C1309.12 112.004 1304.63 109.014 1300.31 106.548C1262.47 84.9562 1233.35 118.121 1203.11 175.259C1182.92 213.399 1154.63 231.014 1121.07 227.794C1106.81 226.426 1091.85 224.045 1077.3 215.298C1027.81 185.542 1002.39 201.974 980.021 219.338C960.868 234.207 914.483 223.087 883.563 196.334C875.588 189.435 868.537 184.594 863.393 179.61C832.927 150.092 803.65 201.692 765.587 165.452C733.202 134.619 719.27 182.137 689.321 179.27C665.717 177.012 646.851 183.332 625.496 213.381C623.183 216.638 620.86 219.883 618.499 223.117C585.886 267.771 540.132 258.237 499.799 203.326C489.667 189.531 479.174 177.386 468.834 166.859C428.971 126.266 404.836 158.03 378.392 172.502C373.111 175.391 367.646 175.524 362.023 172.125C328.795 152.033 309.165 204.192 271.905 143.742C270.118 140.845 268.149 138.179 266.296 135.551C225.652 77.9253 198.228 139.414 158.499 157.065C126.344 157.505 120.692 226.141 80.5806 206.785C47.712 190.923 26.0975 196.265 0 238.423V477.772C6.57735 479.755 13.7541 481.498 21.5576 482.989H1356.49C1442.38 462.377 1496.47 428.729 1526.97 390.648V215.555L1526.97 215.56Z" fill="#FF012A"/>
<path d="M1526.97 214.543C1503.95 201.106 1476.6 200.743 1459.51 172.298C1436.86 134.614 1410.64 118.636 1395.89 139.63C1381.64 159.937 1361.98 150.816 1325.08 116.728C1320.85 112.815 1316.38 109.921 1312.08 107.537C1274.72 86.811 1246.47 119.657 1216.3 176.2C1196.47 213.376 1168.86 231.333 1135.83 229.366C1121.66 228.523 1106.94 226.839 1092.59 218.716C1044.01 191.224 1018.46 206.186 995.918 221.556C976.448 234.829 931.272 222.805 901.038 196.746C893.055 189.865 886.022 185.303 880.898 180.669C850.831 153.473 823.033 205.342 784.902 169.611C751.746 138.543 738.296 188.432 708.169 183.785C683.908 180.043 665.008 185.383 643.505 215.951C641.201 219.226 638.888 222.515 636.533 225.808C604.251 270.977 557.648 262.868 517.125 207.302C506.896 193.277 496.303 181.08 485.881 170.642C446.321 131.018 421.796 161.883 395.218 178.536C389.912 181.859 384.433 182.408 378.802 179.439C345.63 161.933 325.413 208.572 287.694 149.125C285.862 146.235 283.84 143.578 281.935 140.957C240.411 83.7708 212.472 147.548 171.925 161.872C138.573 159.843 134.068 232.967 92.6618 211.327C54.6152 191.445 31.7745 199.686 0.00219727 257.574V477.218C6.05081 479.378 12.6737 481.306 19.9052 482.991H1374.46C1447.96 464.072 1496.86 435.413 1526.97 402.82V214.543H1526.97Z" fill="black"/>
<path d="M0.00463867 475.967C6.13758 478.592 12.9611 480.939 20.5184 482.993H1391.43C1454.09 465.859 1497.92 441.514 1526.97 413.812V214.773C1506.23 205.42 1483.51 202.172 1468.71 177.107C1446.92 140.168 1421.48 123.761 1406.75 142.26C1392.51 160.144 1372.94 150.03 1336.93 117.296C1332.72 113.474 1328.27 110.673 1324 108.371C1287.12 88.5089 1259.73 121.038 1229.64 176.986C1210.16 213.198 1183.17 228.764 1150.73 230.781C1136.67 231.654 1122.19 229.475 1108.03 221.98C1060.37 196.746 1034.67 210.236 1011.96 223.618C992.157 235.289 948.208 222.369 918.66 197.006C910.67 190.146 903.655 185.859 898.552 181.576C868.908 156.701 842.558 208.845 804.363 173.618C770.435 142.324 757.488 194.544 727.16 188.145C702.259 182.891 683.309 187.279 661.656 218.367C659.361 221.663 657.056 224.99 654.709 228.347C622.752 274.026 575.307 267.346 534.591 211.127C524.267 196.869 513.574 184.617 503.07 174.272C463.82 135.608 438.898 165.584 412.186 184.418C406.857 188.177 401.362 189.141 395.724 186.599C362.621 171.678 341.792 212.806 303.63 154.353C301.749 151.472 299.675 148.824 297.72 146.206C255.32 89.4547 226.862 155.525 185.495 166.521C150.944 162.027 147.592 239.635 104.885 215.714C62.6878 192.081 39.3092 202.669 2.26546 273.648C1.51109 275.095 0.756727 276.54 0.00463867 277.987V475.969L0.00463867 475.967Z" fill="#FF012A"/>
<path d="M0.00463867 473.979C6.50451 477.366 13.9274 480.381 22.369 482.991H1407.59C1460.67 467.664 1499.54 447.071 1526.97 423.715V215.803C1508.95 208.859 1490.46 203.517 1477.89 181.816C1456.93 145.627 1432.28 128.803 1417.57 144.79C1403.33 160.267 1383.86 149.15 1348.74 117.763C1344.56 114.03 1340.14 111.325 1335.88 109.105C1299.48 90.1043 1272.97 122.319 1242.94 177.672C1223.82 212.92 1197.4 228.783 1165.59 232.099C1151.67 233.55 1137.4 232.012 1123.43 225.145C1076.7 202.163 1050.81 214.176 1027.97 225.583C1007.81 235.645 965.103 221.838 936.247 197.165C928.248 190.326 921.258 186.317 916.169 182.386C886.977 159.83 862.039 212.257 823.788 177.527C789.08 146.012 776.659 200.534 746.115 192.409C720.59 185.62 701.571 189.079 679.772 220.685C677.486 223.999 675.191 227.367 672.85 230.786C641.219 276.973 592.933 271.722 552.024 214.851C541.602 200.363 530.81 188.056 520.224 177.802C481.287 140.095 455.964 169.183 429.117 190.2C423.763 194.392 418.257 195.773 412.607 193.66C379.579 181.317 358.124 216.947 319.524 159.483C317.593 156.612 315.472 153.973 313.464 151.356C270.194 95.0362 241.211 163.406 199.025 171.075C163.278 164.112 161.081 246.206 117.071 220.006C73.511 194.077 50.0823 204.221 11.6233 276.114C7.68506 283.473 3.78787 290.828 0.00691773 298.141V473.984L0.00463867 473.979Z" fill="black"/>
<path d="M0.00447632 471.231C6.91229 475.691 15.1283 479.634 24.8097 482.991H1423.06C1467.59 469.46 1501.62 452.16 1526.97 432.663V217.219C1511.94 211.505 1497.29 204.857 1486.86 186.497C1466.72 151.065 1442.85 133.831 1428.19 147.295C1413.92 160.386 1394.56 148.25 1360.34 118.205C1356.2 114.563 1351.79 111.952 1347.56 109.814C1311.64 91.668 1286 123.579 1256.03 178.334C1237.27 212.62 1211.43 228.79 1180.25 233.389C1166.46 235.424 1152.41 234.522 1138.63 228.281C1092.83 207.544 1066.73 218.071 1043.77 227.518C1023.25 235.96 981.794 221.278 953.628 197.295C945.619 190.476 938.659 186.743 933.579 183.163C904.867 162.918 881.309 215.642 843.004 181.401C807.51 149.67 795.648 206.471 764.865 196.637C738.733 188.291 719.625 190.841 697.68 222.969C695.404 226.303 693.118 229.71 690.784 233.191C659.474 279.884 610.349 276.064 569.249 218.539C558.731 203.818 547.844 191.454 537.171 181.296C498.555 144.54 472.82 172.748 445.842 195.944C440.464 200.568 434.949 202.364 429.285 200.684C396.344 190.91 374.237 221.059 335.213 164.575C333.234 161.713 331.062 159.08 329 156.471C284.866 100.579 255.352 171.248 212.346 175.59C175.401 166.161 174.364 252.736 129.045 224.259C84.1267 196.033 60.6615 205.742 20.7667 278.544C13.5649 291.687 6.49067 304.824 0.00219727 317.766V471.229L0.00447632 471.231Z" fill="#FF012A"/>
<path d="M0.00463867 467.643C7.16543 473.53 16.1905 478.681 27.3374 482.991H1437.96C1474.8 471.224 1504.09 456.829 1526.97 440.76V218.634C1515.04 213.442 1503.83 206.263 1495.44 191.208C1476.13 156.534 1453.01 138.901 1438.42 149.827C1424.1 160.545 1404.88 147.384 1371.57 118.677C1367.44 115.124 1363.06 112.605 1358.85 110.552C1323.43 93.2584 1298.65 124.869 1268.75 179.022C1250.34 212.348 1225.07 228.837 1194.53 234.708C1180.87 237.333 1167.04 237.058 1153.44 231.449C1108.6 212.95 1082.25 221.975 1059.18 229.484C1038.28 236.285 998.097 220.753 970.623 197.457C962.603 190.658 955.681 187.203 950.606 183.972C922.409 166.024 900.188 219.067 861.841 185.309C825.556 153.371 814.277 212.426 783.232 200.9C756.512 190.982 737.295 192.639 715.209 225.289C712.941 228.641 710.664 232.089 708.337 235.631C677.345 282.828 627.39 280.442 586.093 222.264C575.48 207.314 564.497 194.891 553.738 184.829C515.447 149.018 489.25 176.3 462.188 201.728C456.775 206.776 451.262 208.993 445.583 207.747C412.733 200.529 389.96 225.216 350.521 169.705C348.493 166.851 346.273 164.228 344.158 161.621C299.163 106.153 268.37 172.041 225.292 180.141C186.026 187.525 187.272 259.304 140.645 228.548C94.3712 198.024 70.8833 207.309 29.5366 281.009C18.9573 299.868 8.65138 318.748 0.00919678 337.067V467.643H0.00463867Z" fill="black"/>
<path d="M1526.97 448.087V219.712C1518.07 214.78 1509.9 207.818 1503.46 196.012C1484.96 162.104 1462.56 144.066 1448.09 152.453C1433.67 160.805 1414.62 146.618 1382.22 119.24C1378.13 115.78 1373.77 113.351 1369.58 111.38C1334.64 94.9339 1310.74 126.248 1280.89 179.801C1262.86 212.169 1238.14 228.993 1208.24 236.117C1194.72 239.337 1181.11 239.679 1167.69 234.704C1123.8 218.429 1097.2 225.943 1074.03 231.536C1052.74 236.677 1013.83 220.312 987.052 197.703C979.023 190.925 972.143 187.744 967.065 184.868C939.42 169.201 918.498 222.584 880.108 189.305C843.03 157.163 832.361 218.459 801.031 205.249C773.744 193.745 754.397 194.519 732.17 227.693C729.911 231.064 727.641 234.553 725.323 238.157C694.645 285.857 643.977 284.825 602.368 226.075C591.689 210.872 580.58 198.412 569.734 188.448C531.774 153.576 505.157 179.993 477.961 207.599C472.526 213.08 467.001 215.71 461.311 214.897C428.558 210.222 405.105 229.469 365.26 174.924C363.181 172.08 360.914 169.464 358.746 166.861C312.894 111.813 281.468 193.704 237.667 184.781C196.63 176.424 199.613 265.961 151.676 232.926C104.048 200.105 80.551 208.978 37.739 283.562C23.6271 308.144 9.99602 332.824 0.00463867 356.264V463.049C7.0925 470.78 16.7922 477.492 29.564 482.989H1452.24C1482.17 472.94 1506.85 461.121 1526.97 448.083V448.087Z" fill="#FF012A"/>
<path d="M1526.97 454.753V220.2C1520.9 215.655 1515.36 209.609 1510.75 200.971C1493.06 167.834 1471.32 149.369 1457.02 155.235C1442.46 161.211 1423.63 146.019 1392.15 119.96C1388.07 116.592 1383.74 114.253 1379.58 112.366C1345.13 96.7639 1322.1 127.791 1292.31 180.74C1274.63 212.15 1250.5 229.318 1221.21 237.687C1207.83 241.511 1194.44 242.459 1181.21 238.122C1138.29 224.061 1111.41 230.05 1088.15 233.753C1066.47 237.208 1028.84 220.04 1002.75 198.116C994.714 191.361 987.882 188.448 982.797 185.927C955.74 172.515 936.077 226.269 897.647 193.464C859.767 161.127 849.737 224.651 818.101 209.764C790.265 196.664 770.77 196.566 748.399 230.264C746.147 233.655 743.888 237.183 741.578 240.85C711.211 289.05 659.714 289.458 617.914 230.054C607.138 214.618 595.939 202.097 585.002 192.234C547.377 158.296 520.334 183.853 493.008 213.636C487.547 219.553 482.016 222.588 476.309 222.212C443.657 220.07 419.51 233.895 379.271 180.307C377.143 177.472 374.827 174.865 372.605 172.267C325.898 117.635 293.597 201.297 249.311 189.59C206.877 178.37 211.225 272.787 161.973 237.47C112.993 202.353 89.5032 210.824 45.2052 286.283C27.326 316.745 10.1897 347.455 0.00463867 375.764V457.124C6.50451 467.259 16.6212 475.999 31.1821 482.993H1465.94C1489.63 474.618 1509.85 465.105 1526.97 454.756V454.753Z" fill="black"/>
<path d="M1526.97 460.852V219.985C1523.37 216.266 1520.06 211.751 1517.13 206.145C1500.24 173.78 1479.12 154.841 1465.05 158.23C1450.28 161.788 1431.72 145.636 1401.16 120.892C1397.12 117.617 1392.81 115.368 1388.66 113.565C1354.71 98.8013 1332.55 129.548 1302.81 181.891C1285.51 212.346 1261.94 229.872 1233.28 239.467C1220.04 243.9 1206.88 245.445 1193.82 241.75C1151.88 229.886 1124.71 234.337 1101.36 236.18C1079.29 237.924 1042.93 219.979 1017.54 198.74C1009.49 192.006 1002.72 189.36 997.618 187.199C971.185 176.004 952.739 230.173 914.275 197.833C875.591 165.306 866.224 231.05 834.262 214.486C805.892 199.784 786.229 198.818 763.721 233.04C761.478 236.449 759.226 240.018 756.925 243.747C726.866 292.448 674.544 294.294 632.552 234.234C621.681 218.568 610.391 205.983 599.362 196.219C562.079 163.21 534.605 187.915 507.147 219.874C501.661 226.223 496.114 229.412 490.4 229.731C457.894 231.538 433 238.53 392.374 185.895C390.195 183.072 387.832 180.469 385.557 177.875C338 123.657 304.91 209.08 260.049 194.599C216.292 180.474 221.935 279.811 171.367 242.218C121.038 204.802 97.5665 212.882 51.7711 289.207C29.6005 326.158 8.54654 363.605 0.00463867 396.656V448.807C5.05958 462.345 15.1877 473.961 31.9342 482.993H1479C1497.07 476.242 1513 468.815 1526.97 460.852Z" fill="#FF012A"/>
<path d="M1526.97 466.436V219.195C1525.37 216.909 1523.85 214.391 1522.43 211.599C1506.32 180.013 1485.39 158.025 1471.99 161.507C1457.43 165.293 1438.72 145.547 1409.09 122.107C1405.07 118.926 1400.79 116.765 1396.67 115.047C1363.21 101.117 1341.93 131.588 1312.24 183.323C1295.31 212.823 1272.32 230.718 1244.27 241.53C1231.17 246.578 1218.23 248.706 1205.34 245.659C1164.39 235.976 1136.81 236.45 1113.49 238.888C1091.15 241.224 1055.94 220.2 1031.25 199.643C1023.19 192.931 1016.48 190.543 1011.36 188.751C985.582 179.733 968.316 234.364 929.825 202.485C890.331 169.776 881.65 237.73 849.342 219.493C820.458 203.187 800.607 201.354 777.96 236.103C775.727 239.531 773.482 243.139 771.189 246.931C741.436 296.129 688.291 299.418 646.108 238.704C635.138 222.805 623.759 210.156 612.64 200.495C575.703 168.406 547.791 192.266 520.201 226.401C514.69 233.186 509.146 237.029 503.407 237.537C470.946 240.413 445.396 243.465 404.391 191.769C402.16 188.956 399.751 186.358 397.424 183.769C349.019 129.958 315.218 217.144 269.701 199.894C224.692 182.835 231.559 287.122 179.674 247.25C127.996 207.538 104.558 215.238 57.2475 292.414C11.2083 367.518 -30.1566 445.245 31.6104 482.993H1491.31C1504.37 477.82 1516.22 472.28 1526.97 466.436H1526.97Z" fill="black"/>
<path d="M1526.97 471.589V218.388C1526.8 218.06 1526.63 217.727 1526.46 217.39C1511.14 186.586 1491.22 166.46 1477.68 165.12C1462.43 163.613 1444.45 145.8 1415.77 123.659C1411.77 120.573 1407.52 118.497 1403.41 116.865C1370.46 103.763 1350.05 133.97 1320.4 185.093C1303.84 213.639 1281.44 231.914 1254 243.93C1241.05 249.6 1228.32 252.301 1215.61 249.908C1175.64 242.384 1147.91 243.743 1124.36 241.935C1101.52 240.183 1067.69 220.763 1043.7 200.885C1035.63 194.198 1028.98 192.054 1023.84 190.641C998.744 183.749 982.628 238.895 944.11 207.474C903.8 174.589 895.828 244.75 863.16 224.836C833.772 206.922 813.721 204.224 790.939 239.501C788.713 242.947 786.477 246.596 784.193 250.45C754.741 300.147 700.778 304.876 658.403 243.508C647.338 227.379 635.872 214.662 624.657 205.106C588.069 173.933 559.72 196.949 531.998 233.261C526.462 240.481 520.908 244.723 515.155 245.675C482.781 251.042 456.527 248.736 415.15 197.975C412.867 195.174 410.412 192.58 408.031 189.998C358.783 136.593 324.344 225.551 278.095 205.523C231.896 185.517 239.925 294.768 186.721 252.617C133.696 210.608 110.304 217.944 61.4638 295.958C15.9647 368.637 -25.1152 444.318 30.0584 482.989H1502.77C1511.39 479.347 1519.45 475.539 1526.97 471.587L1526.97 471.589Z" fill="#FF012A"/>
<path d="M1526.97 476.345V219.409C1512.71 191.65 1494.63 172.568 1481.93 169.14C1466.49 164.974 1448.74 146.47 1421.01 125.617C1417.03 122.627 1412.81 120.635 1408.72 119.087C1376.27 106.808 1356.74 136.759 1327.13 187.268C1310.95 214.862 1289.14 233.521 1262.29 246.735C1249.49 253.032 1236.98 256.293 1224.44 254.561C1185.47 249.176 1157.48 248.994 1133.79 245.388C1110.6 241.858 1078.01 221.732 1054.71 202.533C1046.63 195.869 1040.06 193.961 1034.88 192.936C1010.49 188.111 995.503 243.838 956.96 212.868C915.83 179.817 908.587 252.177 875.54 230.586C845.664 211.063 825.394 207.501 802.481 243.307C800.263 246.771 798.034 250.461 795.76 254.377C766.608 304.568 711.827 310.742 669.261 248.72C658.1 232.359 646.548 219.573 635.237 210.124C599.004 179.861 570.209 202.043 542.356 240.531C536.795 248.185 531.23 252.825 525.468 254.224C493.172 262.073 466.215 254.429 424.477 204.593C422.141 201.803 419.643 199.214 417.206 196.637C367.115 143.631 332.107 234.38 285.055 211.562C237.724 188.608 246.858 302.825 192.337 258.395C137.967 214.088 114.637 221.071 64.2514 299.912C19.4315 370.043 -21.2519 443.479 27.1301 482.991H1513.22C1517.99 480.826 1522.57 478.611 1526.97 476.345Z" fill="black"/>
<path d="M1526.97 480.737V224.004C1513.6 197.972 1496.78 179.024 1484.56 173.627C1469.01 166.754 1451.41 147.619 1424.63 128.042C1420.68 125.15 1416.49 123.238 1412.42 121.779C1380.47 110.318 1361.83 140.02 1332.25 189.911C1316.45 216.556 1295.24 235.606 1268.97 250.008C1256.33 256.934 1244.03 260.747 1231.66 259.68C1193.69 256.412 1165.45 254.696 1141.62 249.306C1118.08 243.982 1086.71 223.167 1064.12 204.645C1056.02 198.006 1049.52 196.318 1044.31 195.698C1020.63 192.876 1006.77 249.256 968.204 218.728C926.249 185.517 919.754 260.074 886.318 236.798C855.965 215.669 835.465 211.241 812.417 247.576C810.206 251.061 807.987 254.787 805.721 258.766C776.866 309.455 721.271 317.071 678.511 254.393C667.255 237.801 655.618 224.943 644.207 215.605C608.335 186.244 579.09 207.599 551.105 248.264C545.521 256.353 539.94 261.389 534.169 263.238C501.937 273.562 474.283 260.596 432.189 211.674C429.8 208.898 427.257 206.311 424.768 203.738C373.838 151.129 338.312 243.695 290.404 218.067C241.985 192.165 252.184 311.349 196.338 264.637C140.624 218.035 117.369 224.676 65.4225 304.329C21.4367 371.775 -18.7157 442.757 22.7289 482.993H1522.47C1523.99 482.248 1525.49 481.496 1526.97 480.737Z" fill="#FF012A"/>
<path d="M1526.97 232.616C1514.2 206.496 1497.75 186.222 1485.42 178.639C1469.81 169.047 1452.29 149.303 1426.47 130.991C1422.54 128.199 1418.38 126.367 1414.33 124.995C1382.89 114.342 1365.14 143.808 1335.58 193.077C1320.16 218.773 1299.57 238.218 1273.86 253.802C1261.39 261.362 1249.29 264.872 1237.09 265.323C1200.12 266.693 1171.66 260.915 1147.65 253.748C1123.8 246.623 1093.62 225.13 1071.73 207.282C1063.62 200.668 1057.12 198.066 1051.96 198.982C1029.3 203.007 1016.24 255.197 977.658 225.111C934.873 191.748 929.144 268.5 895.302 243.537C864.482 220.804 843.741 215.507 820.563 252.371C818.361 255.874 816.148 259.641 813.892 263.684C785.331 314.867 728.924 323.929 685.973 260.596C674.619 243.772 662.9 230.841 651.391 221.615C615.881 193.15 586.182 213.684 558.066 256.526C552.457 265.049 546.859 270.48 541.082 272.778C508.904 285.57 480.56 267.299 438.112 219.282C435.669 216.519 433.082 213.933 430.539 211.369C378.772 159.153 342.779 253.556 293.96 225.098C244.497 196.263 255.715 320.396 198.549 271.404C141.493 222.504 118.326 228.819 64.8051 309.272C21.8175 373.89 -17.658 442.189 16.7671 482.991H1526.97V232.614L1526.97 232.616Z" fill="black"/>
<path d="M1526.97 246.247C1526.81 245.91 1526.66 245.568 1526.5 245.222C1514.21 217.579 1497.35 194.524 1484.31 184.239C1468.71 171.943 1451.2 151.587 1426.35 134.528C1422.44 131.839 1418.31 130.079 1414.29 128.799C1383.34 118.951 1366.49 148.191 1336.95 196.833C1321.92 221.584 1301.96 241.425 1276.8 258.19C1264.5 266.385 1252.55 270.494 1240.57 271.556C1204.7 274.738 1175.92 267.723 1151.73 258.78C1127.57 249.848 1098.57 227.685 1077.39 210.512C1069.26 203.925 1062.76 201.61 1057.65 202.859C1035.93 208.162 1023.75 261.738 985.154 232.088C941.535 198.581 936.585 277.523 902.328 250.867C871.053 226.531 850.056 220.362 826.748 257.754C824.553 261.276 822.349 265.084 820.102 269.188C791.833 320.864 734.617 331.372 691.475 267.386C680.025 250.332 668.226 237.323 656.614 228.211C621.471 200.634 591.317 220.353 563.068 265.373C557.434 274.33 551.821 280.158 546.037 282.904C513.9 298.164 484.869 274.597 442.078 227.477C439.582 224.729 436.952 222.144 434.354 219.585C381.751 167.757 345.334 264.029 295.562 232.714C245.09 200.96 257.294 330.032 198.807 278.758C140.406 227.564 117.346 233.565 62.2319 314.801C20.4158 376.436 -18.2096 441.82 9.21428 482.987H1526.97V246.241L1526.97 246.247Z" fill="#FF012A"/>
<path d="M0.00447632 482.986C0.00447632 482.986 0.00447632 482.991 0.00675538 482.991H1526.97V263.563C1525.03 260.694 1523.23 257.417 1521.61 253.652C1510.05 226.804 1494.1 203.043 1481.06 190.492C1465.51 175.521 1447.97 154.538 1424.1 138.721C1420.2 136.137 1416.11 134.45 1412.1 133.258C1381.66 124.208 1365.72 153.234 1336.19 201.245C1321.54 225.049 1302.21 245.287 1277.6 263.23C1265.48 272.064 1253.75 277.454 1241.9 278.445C1206.88 281.374 1178.07 275.189 1153.67 264.468C1129.23 253.729 1101.39 230.895 1080.91 214.395C1072.77 207.836 1066.47 206.703 1061.19 207.391C1039.48 210.22 1029.12 268.94 990.507 239.72C946.047 206.076 941.895 287.206 907.215 258.855C875.49 232.919 854.231 225.872 830.796 263.798C828.608 267.337 826.411 271.184 824.175 275.353C796.193 327.523 738.172 339.479 694.839 274.835C683.293 257.549 671.414 244.46 659.7 235.467C624.928 208.772 594.314 227.684 565.933 274.881C560.274 284.273 554.642 290.495 548.854 293.692C516.748 311.423 487.039 282.564 443.908 236.333C441.357 233.6 438.684 231.016 436.033 228.461C382.599 177.018 345.79 275.182 295.028 240.991C243.574 206.334 256.845 340.21 196.926 286.773C137.29 233.165 114.242 238.986 57.521 320.993C33.4633 355.776 10.4152 391.879 0.00219727 424.114V482.988L0.00447632 482.986Z" fill="black"/>
<path d="M1526.97 281.422C1522.15 276.994 1517.85 271.077 1514.41 262.8C1503.58 236.75 1488.56 212.305 1475.51 197.462C1460.02 179.847 1442.42 158.219 1419.53 143.628C1415.64 141.151 1411.59 139.533 1407.61 138.432C1377.67 130.172 1362.64 158.996 1333.11 206.37C1318.86 229.234 1300.17 249.864 1276.08 268.987C1264.15 278.459 1252.59 284.355 1240.93 286.051C1206.86 290.999 1177.92 283.373 1153.3 270.872C1128.59 258.331 1101.89 234.827 1082.11 218.994C1073.96 212.462 1067.71 211.487 1062.43 212.638C1041.27 217.26 1032.18 276.857 993.554 248.066C948.251 214.295 944.906 297.608 909.792 267.554C877.626 240.023 856.095 232.096 832.532 270.553C830.353 274.111 828.163 277.999 825.937 282.229C798.242 334.891 739.417 348.294 695.891 282.995C684.25 265.478 672.294 252.305 660.475 243.432C626.077 217.613 594.998 235.725 566.484 285.096C560.8 294.921 555.146 301.542 549.36 305.186C517.277 325.387 486.893 291.249 443.424 245.896C440.82 243.177 438.105 240.593 435.398 238.047C381.131 186.985 343.964 287.069 292.177 249.978C239.761 212.437 253.953 351.239 192.731 295.497C131.734 239.617 108.839 245.13 50.497 327.894C31.0453 355.489 12.2203 383.998 0 410.742V482.995H1526.97V281.424L1526.97 281.422Z" fill="#FF012A"/>
<path d="M1526.97 298.455C1518.16 293.779 1510.25 286.522 1504.72 272.72C1494.6 247.471 1480.54 222.365 1467.46 205.206C1452.05 184.972 1434.38 162.69 1412.48 149.31C1408.6 146.944 1404.59 145.387 1400.62 144.378C1371.19 136.902 1357.09 165.539 1327.55 212.268C1313.69 234.193 1295.66 255.213 1272.08 275.515C1260.34 285.624 1248.94 292.019 1237.46 294.424C1204.33 301.37 1175.3 292.329 1150.44 278.042C1125.48 263.7 1099.9 239.524 1080.84 224.359C1072.66 217.859 1066.44 217.025 1061.19 218.65C1040.51 225.045 1032.75 285.547 994.115 257.175C947.964 223.285 945.439 308.78 909.886 277.019C877.284 247.895 855.4 239.038 831.787 278.074C829.608 281.645 827.432 285.577 825.217 289.87C797.804 343.025 738.179 357.875 694.463 291.921C682.723 274.172 670.694 260.913 658.768 252.168C624.746 227.214 593.202 244.535 564.556 296.083C558.85 306.343 553.172 313.358 547.384 317.451C515.315 340.128 484.261 300.714 440.46 256.229C437.8 253.526 435.044 250.942 432.282 248.401C377.184 197.717 339.684 299.745 286.849 259.734C233.492 219.327 248.584 363.039 186.055 304.992C123.698 246.842 100.967 252.058 40.9912 335.563C26.1112 356.28 11.5822 377.557 0.00463867 398.226V482.988H1526.97V298.453V298.455Z" fill="black"/>
<path d="M1526.97 314.544C1513.38 310.042 1500.23 303.932 1492.36 283.485C1482.95 259.035 1469.85 233.286 1456.75 213.791C1441.41 190.962 1423.67 168.019 1402.76 155.832C1398.9 153.583 1394.93 152.083 1390.98 151.167C1362.05 144.467 1348.88 172.93 1319.32 219.008C1305.86 239.996 1288.49 261.398 1265.42 282.885C1253.88 293.633 1242.62 300.518 1231.34 303.643C1199.11 312.572 1170.03 302.139 1144.92 286.06C1119.71 269.924 1095.25 245.071 1076.89 230.572C1068.7 224.101 1062.5 223.406 1057.27 225.51C1037.01 233.676 1030.66 295.09 992.011 267.135C945.008 233.133 943.315 320.806 907.313 287.332C874.28 256.619 852.132 246.888 828.375 286.443C826.206 290.035 824.027 294 821.83 298.362C794.604 351.961 734.275 368.306 690.367 301.699C678.532 283.719 666.428 270.369 654.394 261.752C620.751 237.657 588.737 254.192 559.962 307.918C554.23 318.614 548.53 326.025 542.741 330.565C510.679 355.722 478.957 311.036 434.828 267.41C432.111 264.726 429.315 262.137 426.5 259.602C370.572 209.292 332.76 313.292 278.852 270.337C224.567 227.083 240.545 375.684 176.713 315.33C112.993 254.908 90.4443 259.846 28.8209 344.078C18.809 357.764 8.94757 371.714 0.00683594 385.579V482.989H1526.97V314.539L1526.97 314.544Z" fill="#FF012A"/>
<path d="M1526.97 331.388C1508.75 324.355 1487.73 323.801 1477.17 295.139C1468.45 271.487 1456.34 245.112 1443.21 223.267C1427.94 197.858 1410.12 174.258 1390.2 163.246C1386.35 161.117 1382.42 159.668 1378.49 158.847C1350.06 152.915 1337.84 181.221 1308.25 226.64C1295.19 246.694 1278.5 268.472 1255.92 291.147C1244.58 302.533 1233.44 309.905 1222.38 313.75C1191.01 324.653 1161.93 312.845 1136.56 294.966C1111.12 277.044 1087.74 251.534 1070.11 237.673C1061.89 231.251 1055.7 230.676 1050.53 233.261C1030.6 243.211 1025.73 305.527 987.07 277.985C939.208 243.884 938.358 333.726 901.904 298.538C868.445 266.239 846.031 255.63 822.126 295.702C819.965 299.312 817.795 303.319 815.608 307.743C788.706 361.857 727.536 379.626 683.434 312.365C671.503 294.153 659.326 280.708 647.183 272.224C613.92 248.982 581.437 264.739 552.529 320.642C546.773 331.771 541.038 339.572 535.261 344.57C503.158 372.158 470.816 322.26 426.359 279.485C423.585 276.816 420.752 274.222 417.88 271.699C361.178 221.699 323.017 327.753 268.019 281.834C212.82 235.75 229.672 389.226 164.536 326.565C99.4554 263.873 77.1001 268.547 13.813 353.49C9.15464 359.742 4.52816 366.052 0.00878906 372.388V482.991H1526.98V331.388H1526.97Z" fill="black"/>
<path d="M1526.97 469.38V356.66C1507.7 333.097 1473.03 347.758 1458.96 307.734C1439.77 253.105 1402.86 174.851 1362.99 167.469C1323.13 160.087 1317.22 220.621 1243.4 300.352C1169.58 380.08 1100.18 276.729 1060.32 245.723C1020.45 214.716 1027.84 323.977 979.114 289.782C930.39 255.587 930.39 347.599 893.479 310.687C856.567 273.776 832.943 263.44 806.366 318.069C779.79 372.698 717.777 391.892 673.484 323.974C629.19 256.056 581.943 254.579 542.078 334.31C502.213 414.038 463.824 334.31 406.244 284.733C348.661 235.157 310.273 343.168 254.167 294.269C198.061 245.37 215.779 403.702 149.337 338.738C84.357 275.2 61.7443 278.044 0.00463867 358.315V482.991H1518.87C1521.95 478.501 1524.64 473.957 1526.97 469.378V469.38Z" fill="#FF012A"/>
<path d="M1439.52 315.052C1419.45 261.824 1381.94 186.157 1341.66 178.933C1320.04 175.024 1308.39 190.618 1290.18 217.599C1274.74 240.495 1254.49 271.483 1220.75 306.802C1147.28 383.72 1077.93 284.1 1037.17 254.123C997.226 224.756 1003.66 330.825 955.453 297.82C907.552 265.022 907.26 354.263 871.019 318.562C834.665 282.894 811.376 273.051 784.987 326.101C758.499 379.351 697.448 397.977 653.779 332.054C609.937 266.127 563.317 264.582 523.88 341.806C484.404 419.022 446.383 341.416 389.675 293.098C333.116 244.814 295.318 349.297 239.9 301.933C183.87 254.048 199.83 408.09 134.111 345.671C75.3912 289.9 51.1375 288.462 0.00463867 347.863V482.988H1504.96C1519.18 458.721 1522.75 433.125 1521.2 408.741C1515.77 322.915 1459.34 368.24 1439.52 315.047V315.052Z" fill="black"/>
<path d="M1424.11 321.474C1403.36 269.566 1365.04 196.566 1324.37 189.503C1302.74 185.688 1291.05 200.914 1272.55 226.695C1256.74 248.72 1235.83 278.211 1202.14 312.358C1129.03 386.461 1059.76 290.591 1018.05 261.631C978.077 233.881 983.517 336.782 935.826 304.965C888.754 273.561 888.234 359.958 852.592 325.542C816.868 291.049 793.836 281.768 767.638 333.239C741.238 385.11 681.148 403.171 638.104 339.239C594.713 275.305 548.717 273.691 509.711 348.41C470.623 423.113 432.968 347.633 377.138 300.571C321.6 253.581 284.385 354.539 229.665 308.709C173.703 261.838 187.906 411.586 122.916 351.715C69.1943 302.223 44.1794 298.317 0.00219727 343.626V482.993H1493.93C1505.27 460.499 1507.98 436.986 1506.27 414.366C1499.88 329.831 1444.75 373.147 1424.1 321.474H1424.11Z" fill="#FF012A"/>
<path d="M1412.48 327.078C1390.95 276.524 1351.93 206.156 1310.86 199.253C1289.23 195.533 1277.48 210.395 1258.7 234.97C1242.53 256.138 1220.96 284.118 1187.31 317.091C1114.57 388.382 1045.41 296.265 1002.71 268.315C962.76 242.16 967.174 341.919 919.986 311.286C873.751 281.274 872.96 364.869 837.952 331.702C802.82 298.417 780.08 289.667 754.078 339.556C727.759 390.053 668.812 407.422 626.216 345.605C583.452 283.541 537.907 281.978 499.33 354.194C460.629 426.383 423.344 353.027 368.389 307.223C313.874 261.526 277.227 358.967 223.22 314.662C167.317 268.803 179.767 414.259 115.512 356.936C65.3542 312.189 40.0704 307.253 0.00683594 343.939V482.993H1485.83C1494.97 462.044 1496.97 440.279 1495.12 419.17C1487.82 335.932 1433.85 377.27 1412.48 327.078Z" fill="black"/>
<path d="M1404.39 331.944C1382.07 282.741 1342.35 215.111 1300.88 208.267C1279.23 204.693 1267.43 219.149 1248.39 242.509C1231.82 262.832 1209.62 289.289 1176.02 321.091C1103.66 389.568 1034.65 301.213 990.915 274.266C951.02 249.684 954.372 346.323 907.679 316.877C862.289 288.255 861.218 369.047 826.846 337.129C792.304 305.053 769.853 296.833 744.052 345.137C717.813 394.26 659.891 411.018 617.865 351.234C575.609 291.122 530.634 289.531 492.485 359.24C454.172 428.916 417.254 357.686 363.174 313.135C309.68 268.73 273.593 362.659 220.307 319.874C164.454 275.029 175.152 416.189 111.639 361.417C63.5717 319.963 38.1921 315.113 0.00878906 347.421V482.991H1480.61C1488.05 463.366 1489.49 443.064 1487.51 423.234C1479.32 341.297 1426.48 380.65 1404.39 331.944H1404.39Z" fill="#FF012A"/>
<path d="M1399.58 336.151C1376.47 288.298 1336.06 223.327 1294.19 216.619C1272.54 213.153 1260.64 227.244 1241.36 249.388C1224.39 268.876 1201.58 293.797 1168.01 324.43C1096.05 390.094 1027.21 305.5 982.401 279.556C942.608 256.517 944.865 350.067 898.657 321.805C854.124 294.565 852.756 372.562 819.024 341.892C785.073 311.025 762.907 303.335 737.309 350.058C711.147 397.809 654.248 413.952 612.795 356.203C571.042 298.039 526.64 296.421 488.921 363.628C450.998 430.789 414.341 361.809 361.242 318.391C308.668 275.403 273.231 365.704 220.676 324.43C164.865 280.602 173.81 417.464 111.049 365.241C63.6836 325.83 38.1628 322.001 0.00683594 353.222V482.991H1478.19C1484.31 464.487 1485.28 445.398 1483.18 426.641C1474.15 346.011 1422.38 383.371 1399.58 336.151Z" fill="black"/>
<path d="M1397.81 339.768C1373.91 293.259 1332.81 230.95 1290.54 224.384C1268.88 221.02 1256.87 234.754 1237.37 255.68C1219.98 274.346 1196.59 297.717 1163.04 327.181C1091.48 390.033 1022.85 309.195 976.924 284.257C937.278 262.732 938.406 353.226 892.672 326.144C849.003 300.286 847.332 375.488 814.24 346.068C780.877 316.406 758.996 309.252 733.605 354.391C707.515 400.774 651.646 416.297 610.764 360.583C569.515 304.368 525.687 302.724 488.397 367.425C450.861 432.075 414.556 365.241 362.349 323.056C310.781 281.383 275.898 368.165 224.086 328.398C168.306 285.586 175.501 418.147 113.502 368.477C65.5981 330.1 39.8265 328.136 0.00683594 360.89V482.993H1478.43C1483.53 465.426 1484.11 447.333 1481.89 429.458C1472.06 350.136 1421.32 385.497 1397.81 339.768Z" fill="#FF012A"/>
<path d="M1398.83 342.868C1374.13 297.701 1332.35 238.054 1289.67 231.629C1268.01 228.368 1255.86 241.744 1236.17 261.451C1218.33 279.303 1194.39 301.118 1160.86 329.412C1089.73 389.454 1021.32 312.36 974.239 288.439C934.78 268.393 934.748 355.865 889.481 329.964C846.69 305.48 844.702 377.897 812.249 349.723C779.474 321.269 757.87 314.648 732.691 358.204C706.669 403.219 651.831 418.122 611.523 364.444C570.776 310.177 527.524 308.506 490.663 370.704C453.514 432.84 417.557 368.156 366.244 327.204C315.681 286.849 281.34 370.118 230.283 331.846C174.526 290.053 179.97 418.311 118.739 371.194C69.2674 333.125 43.1426 333.879 0.00463867 370.298V482.993H1481.19C1485.47 466.197 1485.72 448.91 1483.39 431.755C1472.79 353.741 1423.03 387.104 1398.83 342.868Z" fill="black"/>
<path d="M1402.39 345.518C1376.87 301.692 1334.43 244.707 1291.35 238.428C1269.68 235.269 1257.37 248.285 1237.51 266.775C1219.2 283.82 1194.73 304.069 1161.22 331.197C1090.52 388.433 1022.37 315.068 974.091 292.175C934.855 273.573 933.64 358.058 888.825 333.339C846.92 310.225 844.604 379.859 812.793 352.934C780.602 325.688 759.274 319.601 734.316 361.572C708.358 405.223 654.552 419.503 614.823 367.858C574.575 315.54 532.036 313.926 495.469 373.537C458.842 433.241 423.104 370.624 372.683 330.903C323.125 291.862 289.315 371.629 239.023 334.845C183.279 294.073 186.972 418.029 126.52 373.462C74.6847 335.247 48.1679 339.616 0.00463867 381.382V482.993H1486.27C1489.91 466.823 1489.88 450.186 1487.43 433.606C1476.09 356.902 1427.29 388.262 1402.4 345.518H1402.39Z" fill="#FF012A"/>
<path d="M1408.25 347.795C1381.91 305.306 1338.8 250.985 1295.31 244.85C1273.65 241.791 1261.13 254.443 1241.14 271.722C1222.34 287.963 1197.37 306.647 1163.87 332.603C1093.62 387.036 1025.75 317.379 976.238 295.534C937.261 278.338 934.837 359.872 890.463 336.336C849.456 314.584 846.799 381.443 815.633 355.767C784.025 329.727 762.968 324.175 738.234 364.56C712.335 406.85 659.563 420.504 620.414 370.893C580.662 320.521 538.719 318.896 502.564 375.989C466.34 433.193 430.937 372.71 381.409 334.223C332.858 296.498 299.564 372.771 250.051 337.466C194.308 297.72 196.249 417.368 136.588 375.351C81.8317 336.789 54.9457 345.655 0.00219727 393.962V482.986H1493.5C1496.61 467.322 1496.34 451.2 1493.76 435.076C1481.71 359.682 1433.82 389.037 1408.24 347.788L1408.25 347.795Z" fill="black"/>
<path d="M1416.14 349.769C1388.97 308.618 1345.21 256.959 1301.32 250.972C1279.65 248.013 1266.92 260.293 1246.81 276.369C1227.5 291.81 1202.07 308.926 1168.57 333.71C1098.78 385.345 1031.22 319.368 980.425 298.592C941.74 282.767 938.087 361.385 894.144 339.032C854.046 318.634 851.034 382.726 820.512 358.299C789.485 333.467 768.696 328.448 744.194 367.249C718.349 408.179 666.612 421.203 628.046 373.63C588.789 325.205 547.443 323.569 511.703 378.145C475.883 432.847 440.817 374.499 392.18 337.248C344.636 300.835 311.848 373.628 263.124 339.793C207.373 301.077 207.56 416.415 148.701 376.946C90.6881 338.045 63.4853 352.235 0.00219727 407.727V482.993H1502.66C1505.34 467.737 1504.84 452.025 1502.13 436.257C1489.41 362.174 1442.38 389.522 1416.14 349.771L1416.14 349.769Z" fill="#FF012A"/>
<path d="M1425.83 351.512C1397.82 311.697 1353.42 262.7 1309.13 256.861C1287.45 254.003 1274.46 265.897 1254.27 280.786C1234.43 295.425 1208.56 310.975 1175.05 334.588C1105.74 383.433 1038.5 321.103 986.403 301.421C948.042 286.928 943.142 362.668 899.614 341.498C860.439 322.447 857.055 383.781 827.183 360.601C796.735 336.974 776.208 332.491 751.945 369.708C726.146 409.279 675.451 421.675 637.472 376.137C598.708 329.658 557.958 328.011 522.635 380.069C487.217 432.27 452.493 376.055 404.742 340.039C358.208 304.94 325.907 374.262 277.988 341.885C222.217 304.203 220.649 415.232 162.606 378.307C102.346 339.973 74.7804 358.703 4.16611 418.658C2.76677 419.845 1.37883 421.042 0 422.24V482.993H1513.54C1515.85 468.068 1515.14 452.686 1512.3 437.198C1498.93 364.423 1452.73 389.771 1425.83 351.512H1425.83Z" fill="black"/>
<path d="M1437.06 353.096C1408.21 314.619 1363.17 268.281 1318.47 262.591C1296.79 259.831 1283.52 271.328 1263.28 285.042C1242.87 298.873 1216.6 312.864 1183.08 335.302C1114.27 381.364 1047.36 322.639 993.928 304.085C955.913 290.885 949.758 363.783 906.631 343.802C868.393 326.087 864.621 384.673 835.401 362.741C805.53 340.322 785.258 336.373 761.241 372.006C735.483 410.221 685.832 421.983 648.441 378.483C610.165 333.948 570.017 332.291 535.111 381.833C500.091 431.535 465.711 377.453 418.849 342.672C373.327 308.885 341.5 374.747 294.397 343.818C238.594 307.176 235.269 413.893 178.056 379.508C118.29 343.591 90.1024 363.525 19.1713 421.245C12.521 426.658 6.10551 432.218 0.00219727 437.882V482.996H1525.91C1527.89 468.351 1526.99 453.24 1524.01 437.982C1510.03 366.513 1464.62 389.862 1437.06 353.099L1437.06 353.096Z" fill="#FF012A"/>
<path d="M1526.97 409.674C1507.47 374.211 1472.9 383.752 1449.58 354.591C1419.88 317.452 1374.21 273.771 1329.11 268.233C1307.43 265.571 1293.84 276.654 1273.59 289.209C1252.58 302.225 1225.95 314.669 1192.41 335.93C1124.11 379.219 1057.55 324.056 1002.75 306.665C965.103 294.718 957.68 364.808 914.941 346.019C877.651 329.629 873.475 385.479 844.912 364.797C815.615 343.583 795.593 340.169 771.832 374.218C746.108 411.077 697.503 422.208 660.705 380.743C622.911 338.154 583.37 336.488 548.881 383.51C514.26 430.714 480.224 378.76 434.251 345.215C389.741 312.738 358.377 375.157 312.101 345.662C256.255 310.067 251.17 412.47 194.8 380.62C135.515 347.125 106.689 368.236 35.4711 423.742C22.5603 433.806 10.5702 444.434 0.00219727 455.289V482.991H1526.97V409.671L1526.97 409.674Z" fill="black"/>
<path d="M1526.97 393.82C1507.46 377.525 1482.06 378.218 1463.15 356.072C1432.58 320.273 1386.3 279.245 1340.8 273.86C1319.11 271.294 1305.19 281.944 1284.93 293.362C1263.32 305.548 1236.35 316.465 1202.77 336.543C1135.01 377.069 1068.8 325.417 1012.61 309.229C975.356 298.499 966.664 365.811 924.296 348.221C887.97 333.141 883.376 386.27 855.466 366.834C826.741 346.829 806.963 343.946 783.464 376.411C757.765 411.916 710.211 422.414 674.012 382.984C636.7 342.339 597.764 340.664 563.695 385.169C529.472 429.873 495.786 380.05 450.695 347.743C407.199 316.576 376.281 375.561 330.848 347.492C274.948 312.955 268.099 411.041 212.588 381.719C153.768 350.648 124.293 372.908 52.8148 426.229C32.1551 441.64 13.9318 458.502 0.00219727 475.511V482.995H1526.97V393.825L1526.97 393.82Z" fill="#FF012A"/>
<path d="M1526.97 482.993V385.664C1510.49 377.498 1492.27 373.783 1477.51 357.609C1446.07 323.151 1399.19 284.772 1353.28 279.544C1331.58 277.074 1317.3 287.265 1297.07 297.571C1274.82 308.91 1247.55 318.32 1213.94 337.213C1146.73 374.991 1080.88 326.787 1023.26 311.85C986.421 302.298 976.457 366.864 934.445 350.48C899.099 336.696 894.065 387.12 866.816 368.929C838.658 350.131 819.118 347.777 795.894 378.662C770.211 412.816 723.712 422.678 688.115 385.283C651.277 346.585 612.954 344.9 579.304 386.888C545.478 429.093 512.14 381.397 467.936 350.329C425.454 320.471 394.972 376.039 350.391 349.379C294.422 315.906 285.807 409.68 231.172 382.874C172.798 354.236 142.669 377.609 70.954 428.77C47.4137 445.564 27.1278 464.248 12.5874 482.993H1526.97H1526.97Z" fill="black"/>
<path d="M1526.97 482.993V380.137C1515.04 375.189 1502.96 370.068 1492.42 359.277C1460.1 326.169 1412.62 290.431 1366.3 285.358C1344.6 282.983 1329.94 292.692 1309.76 301.911C1286.85 312.381 1259.3 320.314 1225.65 338.011C1159 373.056 1093.52 328.234 1034.47 314.598C998.044 306.186 986.813 368.035 945.14 352.866C910.788 340.363 905.298 388.098 878.713 371.151C851.12 353.561 831.81 351.736 808.869 381.042C783.193 413.842 737.753 423.07 702.763 387.711C666.396 350.956 628.687 349.265 595.458 388.732C562.029 428.44 529.044 382.87 485.721 353.041C444.256 324.492 414.193 376.657 370.479 351.391C314.428 318.997 304.044 408.454 250.3 384.155C192.357 357.957 161.562 382.412 89.6375 431.436C66.3319 447.321 46.2967 465.071 31.7222 482.991H1526.97L1526.97 482.993Z" fill="#FF012A"/>
<path d="M1526.97 482.993V374.51C1520.27 371.11 1513.73 366.971 1507.63 361.143C1474.41 329.389 1426.34 296.284 1379.62 291.372C1357.92 289.091 1342.86 298.292 1322.75 306.453C1299.16 316.025 1271.36 322.516 1237.65 339.014C1171.6 371.342 1106.47 329.834 1045.97 317.552C1009.97 310.245 997.483 369.398 956.135 355.459C922.79 344.217 916.825 389.285 890.906 373.58C863.874 357.201 844.787 355.897 822.142 383.629C796.462 415.077 752.086 423.672 717.711 390.343C681.809 355.535 644.717 353.834 611.913 390.783C578.876 427.99 546.249 384.547 503.806 355.959C463.359 328.715 433.702 377.493 390.865 353.609C334.72 322.306 322.564 407.449 269.726 385.641C212.198 361.898 180.736 387.391 108.62 434.31C85.6788 449.236 65.9741 465.975 51.4019 482.995H1526.97V482.993Z" fill="black"/>
<path d="M1526.97 482.993V366.663C1525.59 365.601 1524.23 364.478 1522.88 363.279C1488.76 332.885 1440.12 302.405 1392.99 297.653C1371.29 295.466 1355.81 304.128 1335.78 311.259C1311.5 319.904 1283.48 324.993 1249.7 340.281C1184.25 369.911 1119.47 331.636 1057.51 320.77C1021.96 314.534 1008.22 371.012 967.172 358.315C934.85 348.317 928.391 390.735 903.144 376.272C876.668 361.102 857.795 360.316 835.461 386.477C809.767 416.572 766.46 424.538 732.703 393.239C697.261 360.38 660.789 358.668 628.411 393.096C595.766 427.806 563.499 386.486 521.936 359.14C482.508 333.2 453.245 378.61 411.297 356.093C355.045 325.898 341.111 406.724 289.198 387.393C232.067 366.118 199.932 392.61 127.648 437.448C105.247 451.344 85.9887 466.978 71.4734 482.991H1526.97V482.993Z" fill="#FF012A"/>
<path d="M1526.97 482.993V357.085C1493.04 331.384 1448.92 308.413 1406.15 304.286C1384.45 302.189 1368.54 310.289 1348.61 316.417C1323.62 324.098 1295.39 327.828 1261.55 341.897C1196.71 368.851 1132.28 333.727 1068.85 324.337C1033.74 319.138 1018.76 372.956 978.004 361.52C946.72 352.741 939.748 392.538 915.178 379.312C889.253 365.358 870.588 365.08 848.572 389.673C822.849 418.409 780.62 425.755 747.487 396.483C712.499 365.572 676.652 363.849 644.702 395.758C612.446 427.97 580.544 388.773 539.858 362.671C501.454 338.032 472.569 380.092 431.521 358.924C375.149 329.852 359.437 406.367 308.463 389.493C251.71 370.704 218.908 398.146 146.468 440.933C124.838 453.71 106.19 468.118 91.8186 482.991H1526.97L1526.97 482.993Z" fill="black"/>
<path d="M1526.97 482.993V350.968C1494.78 330.916 1456.27 314.783 1418.87 311.33C1397.15 309.325 1380.82 316.832 1360.98 321.987C1335.28 328.667 1306.87 331.09 1272.95 343.927C1208.74 368.229 1144.65 336.167 1079.75 328.318C1045.07 324.127 1028.87 375.292 988.388 365.139C958.154 357.556 950.651 394.76 926.762 382.767C901.385 370.029 882.915 370.253 861.237 393.285C835.472 420.661 794.326 427.389 761.827 400.143C727.283 371.185 692.067 369.446 660.548 398.837C628.677 428.551 597.147 391.473 557.334 366.618C519.953 343.28 491.433 382.008 451.299 362.171C394.792 334.242 377.3 406.449 327.281 392.009C270.893 375.729 237.418 404.069 164.842 444.835C144.273 456.387 126.444 469.426 112.353 482.991H1526.97V482.993Z" fill="#FF012A"/>
<path d="M1526.97 482.993V348.226C1497.22 333.072 1463.6 321.748 1430.88 318.865C1409.16 316.95 1392.39 323.837 1372.65 328.047C1346.23 333.683 1317.64 334.854 1283.64 346.448C1220.07 368.122 1155.98 323.774 1089.93 332.792C1055.87 337.441 1038.3 378.095 998.069 369.252C968.897 362.839 960.848 397.478 937.642 386.717C912.807 375.198 894.525 375.909 873.195 397.392C847.371 423.4 807.317 429.522 775.458 404.297C741.354 377.295 706.772 375.538 675.685 402.408C644.198 429.624 613.041 394.661 574.103 371.055C537.748 349.014 509.583 384.433 470.37 365.909C413.715 339.146 394.445 407.046 345.393 395.015C289.354 381.27 255.213 410.453 182.509 449.229C163.372 459.434 146.632 470.937 133.022 482.993H1526.97H1526.97Z" fill="black"/>
<path d="M1526.97 482.993V348.465C1499.95 337.293 1470.58 329.362 1441.93 326.958C1420.21 325.134 1403.01 331.374 1383.37 334.668C1356.24 339.217 1327.47 339.194 1293.38 349.527C1230.46 368.601 1166.35 327.42 1099.17 337.822C1065.69 343.004 1046.78 381.42 1006.8 373.92C978.697 368.648 970.082 400.758 947.57 391.22C923.271 380.928 905.166 382.113 884.203 402.053C858.306 426.685 819.35 432.216 788.138 409.006C754.463 383.964 720.521 382.181 689.872 406.535C658.766 431.252 627.989 398.406 589.922 376.051C554.595 355.307 526.77 387.435 488.491 370.207C431.674 344.636 410.627 408.231 362.554 398.582C306.854 387.401 272.044 417.368 199.226 454.181C181.983 462.899 166.708 472.676 153.882 482.995H1526.97L1526.97 482.993Z" fill="#FF012A"/>
<path d="M1526.97 482.993V351.357C1502.65 343.264 1476.93 337.692 1451.79 335.684C1430.07 333.95 1412.44 339.52 1392.89 341.92C1365.04 345.338 1336.1 344.18 1301.92 353.24C1239.66 369.742 1175.55 331.769 1107.2 343.485C1074.28 349.128 1054.08 385.342 1014.32 379.221C987.305 375.062 978.111 404.676 956.294 396.357C932.526 387.296 914.587 388.939 894.007 407.347C868.017 430.593 830.173 435.55 799.616 414.348C766.362 391.273 733.063 389.456 702.856 411.294C672.125 433.508 641.737 402.777 604.538 381.678C570.243 362.224 542.746 391.086 505.408 375.135C448.418 350.785 425.6 410.075 378.512 402.777C323.14 394.197 287.667 424.884 214.739 459.763C199.971 466.826 186.664 474.675 175.079 482.993H1526.97H1526.97Z" fill="black"/>
<path d="M1526.97 482.993V356.795C1505.11 350.977 1482.42 347.029 1460.19 345.347C1438.46 343.702 1419.59 344.278 1400.96 350.108C1373.63 358.659 1343.28 350.12 1309.01 357.889C1247.41 371.85 1183.32 337.127 1113.78 350.086C1081.38 356.123 1059.93 390.156 1020.39 385.459C994.469 382.38 984.685 409.539 963.569 402.433C940.325 394.609 922.544 396.688 902.36 413.578C876.261 435.42 839.534 439.828 809.644 420.627C776.803 399.527 744.153 397.668 714.391 416.992C684.034 436.703 654.037 408.085 617.702 388.244C584.439 370.08 557.264 395.699 520.876 381.001C463.697 357.907 439.12 412.889 393.021 407.912C337.975 401.968 301.834 433.308 228.804 466.285C217.411 471.429 206.895 477.047 197.364 482.995H1526.97V482.993Z" fill="#FF012A"/>
<path d="M1526.97 482.993V364.651C1507.15 360.448 1486.83 357.604 1466.89 356.175C1445.17 354.619 1426.17 354.803 1407.32 359.462C1378.92 366.481 1348.76 357.244 1314.39 363.701C1253.46 375.151 1189.41 343.72 1118.66 357.848C1086.74 364.223 1063.88 387.663 1024.77 392.861C1000.07 396.143 989.552 415.577 969.141 409.672C946.419 403.096 928.781 405.585 909.013 420.973C882.783 441.394 847.187 445.282 817.969 428.068C785.531 408.956 753.536 407.035 724.22 423.85C694.23 441.052 664.632 414.546 629.163 395.97C596.935 379.089 570.07 401.492 534.639 388.027C477.262 366.224 450.936 416.898 405.825 414.207C351.105 410.943 314.293 442.861 241.165 473.966C234.46 476.817 228.061 479.837 221.987 482.991H1526.97L1526.97 482.993Z" fill="black"/>
<path d="M1526.97 482.993V375.64C1508.63 372.548 1489.96 370.44 1471.64 369.2C1449.91 367.73 1430.77 367.548 1411.73 371.012C1382.31 376.365 1352.28 366.584 1317.82 371.711C1257.54 380.682 1193.58 352.586 1121.58 367.81C1090.09 374.469 1065.79 395.999 1027.18 402.46C1003.75 406.383 992.458 423.82 972.758 419.107C950.551 413.792 933.047 416.659 913.707 430.566C887.327 449.539 852.87 452.946 824.337 437.708C792.291 420.597 760.958 418.598 732.094 432.909C702.469 447.597 673.279 423.207 638.669 405.895C607.478 390.295 580.917 409.507 546.447 397.253C488.857 376.785 460.561 427.355 416.675 422.701C363.115 417.021 325.529 453.858 253.691 482.989H1526.97V482.993Z" fill="#FF012A"/>
<path d="M1526.97 482.993V388.276C1509.43 385.928 1491.64 384.319 1474.19 383.209C1452.45 381.828 1433.15 381.295 1413.94 383.546C1383.57 387.106 1353.61 376.926 1319.06 380.707C1259.43 387.229 1195.59 362.509 1122.31 378.756C1091.21 385.652 1065.53 405.384 1027.4 413.044C1005.19 417.507 993.165 433.061 974.178 429.526C952.483 425.488 935.103 428.695 916.208 441.143C889.657 458.635 856.355 461.609 828.512 448.333C796.851 433.239 766.182 431.138 737.776 442.952C708.513 455.122 679.733 432.845 645.98 416.807C615.83 402.481 589.567 418.53 556.06 407.467C498.252 388.38 468.476 434.262 425.329 432.184C378.706 429.939 343.866 457.705 288.061 482.991H1526.97L1526.97 482.993Z" fill="black"/>
<path d="M1526.97 482.993V400.243C1509.43 398.399 1491.69 397.139 1474.28 396.102C1452.54 394.805 1433.01 396.738 1413.7 394.967C1382.54 392.109 1352.47 386.177 1317.83 388.586C1258.84 392.69 1196.8 381.434 1120.58 388.586C1089.14 391.535 1062.84 413.728 1025.16 422.512C1004.14 427.414 991.416 441.2 973.141 438.83C951.959 436.081 934.691 439.586 916.249 450.603C889.508 466.575 857.374 469.171 830.226 457.842C798.943 444.785 768.944 442.554 740.996 451.877C712.091 461.52 683.728 441.357 650.832 426.6C621.724 413.544 595.754 426.459 563.214 416.561C505.178 398.908 473.731 436.578 431.523 440.546C392.175 444.245 360.77 463.088 317.871 482.991H1526.97L1526.97 482.993Z" fill="#FF012A"/>
<path d="M1526.97 482.993V416.043C1508.55 414.569 1489.93 413.598 1471.68 412.582C1449.93 411.371 1430.07 412.538 1410.75 409.972C1379 405.756 1348.62 399.033 1313.91 400.051C1255.54 401.765 1193.66 392.635 1116.15 402.002C1085.05 405.763 1058.61 432.193 1020.23 435.566C999.712 437.369 986.966 452.941 969.403 451.72C948.737 450.282 931.571 454.04 913.591 463.648C886.646 478.052 855.69 480.34 829.241 470.935C798.33 459.943 769.008 457.547 741.518 464.389C712.971 471.495 685.029 453.447 652.986 439.98C624.922 428.184 599.244 438 567.669 429.242C509.399 413.081 476.302 446.369 435.019 452.495C405.667 456.85 380.459 468.979 351.437 482.991H1526.97V482.993Z" fill="black"/>
<path d="M814.626 482.993C788.063 476.452 762.95 474.878 739.091 478.736C710.904 483.294 683.384 467.366 652.188 455.193C625.172 444.653 599.788 451.396 569.174 443.755C510.666 429.153 475.949 458.017 435.564 466.276C418.314 469.804 402.392 475.775 386.209 482.991H814.626V482.993Z" fill="#FF012A"/>
<path d="M1526.97 433.684C1506.71 432.526 1486.18 431.89 1466.12 430.892C1444.37 429.723 1424.21 430.163 1404.86 426.808C1372.55 421.208 1341.76 415.31 1307.03 413.348C1249.36 410.089 1187.52 405.592 1108.77 417.249C1077.98 421.807 1050.41 445.216 1012.34 450.453C992.862 453.131 979.543 467.457 962.717 466.443C942.606 465.23 925.497 470.29 907.985 478.529C904.432 480.199 900.833 481.683 897.205 482.991H1526.97V433.684H1526.97Z" fill="#FF012A"/>
<path d="M680.227 482.993C669.849 479.162 659.233 474.82 648.186 470.866C622.216 461.57 597.133 465.278 567.473 458.73C508.728 445.76 472.428 470.148 432.904 480.52C429.996 481.284 427.125 482.111 424.278 482.993H680.227Z" fill="black"/>
<path d="M1526.97 451.686C1503.85 450.877 1480.29 450.724 1457.35 449.662C1435.6 448.589 1415.17 448.242 1395.76 444.103C1362.92 437.1 1331.78 428.92 1296.95 427.104C1239.77 424.118 1178.13 418.943 1098.19 432.957C1067.68 438.303 1038.96 458.6 1001.25 465.798C982.772 469.323 968.984 480.596 952.825 481.623C948.185 481.917 943.697 482.378 939.317 482.991H1526.97V451.686H1526.97Z" fill="black"/>
<path d="M1526.97 471.133C1499.9 470.734 1472.08 471.406 1445.14 470.251C1423.39 469.271 1402.69 468.14 1383.2 463.218C1349.86 454.797 1318.29 445.94 1283.42 442.677C1226.79 437.375 1165.25 434.044 1084.15 450.48C1053.91 456.611 1023.98 473.699 986.702 482.959C986.663 482.968 986.622 482.979 986.583 482.988H1526.97V471.131V471.133Z" fill="#FF012A"/>
<path d="M617.786 482.993C600.285 480.149 582.253 479.324 562.323 475.52C523.128 468.038 493.263 474.294 466.279 482.993H617.786Z" fill="#FF012A"/>
<path d="M1364.44 482.993C1331.55 473.407 1300.21 464.252 1266.19 459.644C1210.08 452.046 1148.6 450.478 1066.41 469.398C1052.09 472.696 1037.49 477.562 1022.15 482.991H1364.44V482.993Z" fill="black"/>
<path d="M1269.06 482.993C1213.32 470.085 1153.91 465.998 1073.52 482.993H1269.06Z" fill="#FF012A"/>
</svg>
